<?xml version='1.0' encoding='utf-8'?>
<mlt LC_NUMERIC="en_US.UTF-8" producer="main_bin" root="D:/js_practice/slidev-math-videos/media/260126" version="7.33.0">
 <profile colorspace="709" description="HD 1080p 30 fps" display_aspect_den="9" display_aspect_num="16" frame_rate_den="1" frame_rate_num="30" height="1080" progressive="1" sample_aspect_den="1" sample_aspect_num="1" width="1920"/>
 <chain id="chain1" out="00:00:46.933">
  <property name="length">1409</property>
  <property name="eof">pause</property>
  <property name="resource">橘雪莉3.wav</property>
  <property name="mlt_service">avformat</property>
  <property name="meta.media.nb_streams">1</property>
  <property name="meta.media.0.stream.type">audio</property>
  <property name="meta.media.0.codec.sample_fmt">s16</property>
  <property name="meta.media.0.codec.sample_rate">32000</property>
  <property name="meta.media.0.codec.channels">1</property>
  <property name="meta.media.0.codec.layout">mono</property>
  <property name="meta.media.0.codec.name">pcm_s16le</property>
  <property name="meta.media.0.codec.long_name">PCM signed 16-bit little-endian</property>
  <property name="meta.media.0.codec.bit_rate">512000</property>
  <property name="seekable">1</property>
  <property name="audio_index">0</property>
  <property name="video_index">-1</property>
  <property name="astream">0</property>
  <property name="kdenlive:folderid">-1</property>
  <property name="kdenlive:id">4</property>
  <property name="kdenlive:control_uuid">{602f603d-c7ca-4448-ba59-65bb4fca27bf}</property>
  <property name="kdenlive:clip_type">1</property>
  <property name="kdenlive:file_size">3005484</property>
  <property name="kdenlive:file_hash">85a1644e2946d4948bc501579da8aa03</property>
  <property name="kdenlive:monitorPosition">0</property>
  <property name="kdenlive:kextractor">1</property>
  <property name="kdenlive:meta.extractor.Bitrate">512 kb/s</property>
 </chain>
 <chain id="chain2" out="00:00:25.833">
  <property name="length">776</property>
  <property name="eof">pause</property>
  <property name="resource">橘雪莉4.wav</property>
  <property name="mlt_service">avformat</property>
  <property name="meta.media.nb_streams">1</property>
  <property name="meta.media.0.stream.type">audio</property>
  <property name="meta.media.0.codec.sample_fmt">s16</property>
  <property name="meta.media.0.codec.sample_rate">32000</property>
  <property name="meta.media.0.codec.channels">1</property>
  <property name="meta.media.0.codec.layout">mono</property>
  <property name="meta.media.0.codec.name">pcm_s16le</property>
  <property name="meta.media.0.codec.long_name">PCM signed 16-bit little-endian</property>
  <property name="meta.media.0.codec.bit_rate">512000</property>
  <property name="seekable">1</property>
  <property name="audio_index">0</property>
  <property name="video_index">-1</property>
  <property name="astream">0</property>
  <property name="kdenlive:folderid">-1</property>
  <property name="kdenlive:id">5</property>
  <property name="kdenlive:control_uuid">{8427f791-a1dd-4588-8308-0379db02e0cd}</property>
  <property name="kdenlive:clip_type">1</property>
  <property name="kdenlive:file_size">1656364</property>
  <property name="kdenlive:file_hash">a4f559ce0888fa783dce9792a3f690a8</property>
  <property name="kdenlive:kextractor">1</property>
  <property name="kdenlive:meta.extractor.Bitrate">512 kb/s</property>
  <property name="kdenlive:monitorPosition">0</property>
 </chain>
 <chain id="chain3" out="00:01:04.733">
  <property name="length">1943</property>
  <property name="eof">pause</property>
  <property name="resource">橘雪莉5.wav</property>
  <property name="mlt_service">avformat</property>
  <property name="meta.media.nb_streams">1</property>
  <property name="meta.media.0.stream.type">audio</property>
  <property name="meta.media.0.codec.sample_fmt">s16</property>
  <property name="meta.media.0.codec.sample_rate">32000</property>
  <property name="meta.media.0.codec.channels">1</property>
  <property name="meta.media.0.codec.layout">mono</property>
  <property name="meta.media.0.codec.name">pcm_s16le</property>
  <property name="meta.media.0.codec.long_name">PCM signed 16-bit little-endian</property>
  <property name="meta.media.0.codec.bit_rate">512000</property>
  <property name="seekable">1</property>
  <property name="audio_index">0</property>
  <property name="video_index">-1</property>
  <property name="astream">0</property>
  <property name="kdenlive:folderid">-1</property>
  <property name="kdenlive:id">6</property>
  <property name="kdenlive:control_uuid">{2236a0c8-f041-4a3d-b9a8-be551f32e063}</property>
  <property name="kdenlive:clip_type">1</property>
  <property name="kdenlive:file_size">4145964</property>
  <property name="kdenlive:file_hash">3f8760364b1c51eff7884c384d56d947</property>
  <property name="kdenlive:kextractor">1</property>
  <property name="kdenlive:meta.extractor.Bitrate">512 kb/s</property>
  <property name="kdenlive:monitorPosition">0</property>
 </chain>
 <chain id="chain4" out="00:00:59.900">
  <property name="length">1798</property>
  <property name="eof">pause</property>
  <property name="resource">橘雪莉6.wav</property>
  <property name="mlt_service">avformat</property>
  <property name="meta.media.nb_streams">1</property>
  <property name="meta.media.0.stream.type">audio</property>
  <property name="meta.media.0.codec.sample_fmt">s16</property>
  <property name="meta.media.0.codec.sample_rate">32000</property>
  <property name="meta.media.0.codec.channels">1</property>
  <property name="meta.media.0.codec.layout">mono</property>
  <property name="meta.media.0.codec.name">pcm_s16le</property>
  <property name="meta.media.0.codec.long_name">PCM signed 16-bit little-endian</property>
  <property name="meta.media.0.codec.bit_rate">512000</property>
  <property name="seekable">1</property>
  <property name="audio_index">0</property>
  <property name="video_index">-1</property>
  <property name="astream">0</property>
  <property name="kdenlive:folderid">-1</property>
  <property name="kdenlive:id">7</property>
  <property name="kdenlive:control_uuid">{3b0aa70d-7b68-4fab-9370-cceab6153366}</property>
  <property name="kdenlive:clip_type">1</property>
  <property name="kdenlive:file_size">3834924</property>
  <property name="kdenlive:file_hash">1d1ece56ae89ded528a58ef3bbe2a3b3</property>
  <property name="kdenlive:kextractor">1</property>
  <property name="kdenlive:meta.extractor.Bitrate">512 kb/s</property>
  <property name="kdenlive:monitorPosition">0</property>
 </chain>
 <chain id="chain5" out="00:00:59.900">
  <property name="length">1798</property>
  <property name="eof">pause</property>
  <property name="resource">橘雪莉7.wav</property>
  <property name="mlt_service">avformat</property>
  <property name="meta.media.nb_streams">1</property>
  <property name="meta.media.0.stream.type">audio</property>
  <property name="meta.media.0.codec.sample_fmt">s16</property>
  <property name="meta.media.0.codec.sample_rate">32000</property>
  <property name="meta.media.0.codec.channels">1</property>
  <property name="meta.media.0.codec.layout">mono</property>
  <property name="meta.media.0.codec.name">pcm_s16le</property>
  <property name="meta.media.0.codec.long_name">PCM signed 16-bit little-endian</property>
  <property name="meta.media.0.codec.bit_rate">512000</property>
  <property name="seekable">1</property>
  <property name="audio_index">0</property>
  <property name="video_index">-1</property>
  <property name="astream">0</property>
  <property name="kdenlive:folderid">-1</property>
  <property name="kdenlive:id">8</property>
  <property name="kdenlive:control_uuid">{f21a321a-07e3-4538-a2b1-b2428914e723}</property>
  <property name="kdenlive:clip_type">1</property>
  <property name="kdenlive:file_size">3836204</property>
  <property name="kdenlive:file_hash">3967c2255875c83f81dd501a8081dc3b</property>
  <property name="kdenlive:kextractor">1</property>
  <property name="kdenlive:meta.extractor.Bitrate">512 kb/s</property>
  <property name="kdenlive:monitorPosition">0</property>
 </chain>
 <chain id="chain6" out="00:01:04.500">
  <property name="length">1936</property>
  <property name="eof">pause</property>
  <property name="resource">橘雪莉8.wav</property>
  <property name="mlt_service">avformat</property>
  <property name="meta.media.nb_streams">1</property>
  <property name="meta.media.0.stream.type">audio</property>
  <property name="meta.media.0.codec.sample_fmt">s16</property>
  <property name="meta.media.0.codec.sample_rate">32000</property>
  <property name="meta.media.0.codec.channels">1</property>
  <property name="meta.media.0.codec.layout">mono</property>
  <property name="meta.media.0.codec.name">pcm_s16le</property>
  <property name="meta.media.0.codec.long_name">PCM signed 16-bit little-endian</property>
  <property name="meta.media.0.codec.bit_rate">512000</property>
  <property name="seekable">1</property>
  <property name="audio_index">0</property>
  <property name="video_index">-1</property>
  <property name="astream">0</property>
  <property name="kdenlive:folderid">-1</property>
  <property name="kdenlive:id">9</property>
  <property name="kdenlive:control_uuid">{fc3e9ae0-9d46-471b-9612-bbf268c43174}</property>
  <property name="kdenlive:clip_type">1</property>
  <property name="kdenlive:file_size">4130604</property>
  <property name="kdenlive:file_hash">58fc061bf0b56dd0ecc44d21a9eff62a</property>
  <property name="kdenlive:kextractor">1</property>
  <property name="kdenlive:meta.extractor.Bitrate">512 kb/s</property>
  <property name="kdenlive:monitorPosition">0</property>
 </chain>
 <chain id="chain7" out="00:00:07.233">
  <property name="length">218</property>
  <property name="eof">pause</property>
  <property name="resource">橘雪莉9.wav</property>
  <property name="mlt_service">avformat</property>
  <property name="meta.media.nb_streams">1</property>
  <property name="meta.media.0.stream.type">audio</property>
  <property name="meta.media.0.codec.sample_fmt">s16</property>
  <property name="meta.media.0.codec.sample_rate">32000</property>
  <property name="meta.media.0.codec.channels">1</property>
  <property name="meta.media.0.codec.layout">mono</property>
  <property name="meta.media.0.codec.name">pcm_s16le</property>
  <property name="meta.media.0.codec.long_name">PCM signed 16-bit little-endian</property>
  <property name="meta.media.0.codec.bit_rate">512000</property>
  <property name="seekable">1</property>
  <property name="audio_index">0</property>
  <property name="video_index">-1</property>
  <property name="astream">0</property>
  <property name="kdenlive:folderid">-1</property>
  <property name="kdenlive:id">10</property>
  <property name="kdenlive:control_uuid">{65b9be76-eba2-45da-8a88-2e9ac37ed41e}</property>
  <property name="kdenlive:clip_type">1</property>
  <property name="kdenlive:file_size">464684</property>
  <property name="kdenlive:file_hash">ccf919bfee6a2805bcb4faee0692114b</property>
  <property name="kdenlive:kextractor">1</property>
  <property name="kdenlive:meta.extractor.Bitrate">512 kb/s</property>
  <property name="kdenlive:monitorPosition">0</property>
 </chain>
 <producer id="producer0" in="00:00:00.000" out="00:09:06.367">
  <property name="length">2147483647</property>
  <property name="eof">continue</property>
  <property name="resource">black</property>
  <property name="aspect_ratio">1</property>
  <property name="mlt_service">color</property>
  <property name="kdenlive:playlistid">black_track</property>
  <property name="mlt_image_format">rgba</property>
  <property name="set.test_audio">0</property>
 </producer>
 <playlist id="playlist0">
  <property name="kdenlive:audio_track">1</property>
 </playlist>
 <playlist id="playlist1">
  <property name="kdenlive:audio_track">1</property>
 </playlist>
 <tractor id="tractor0" in="00:00:00.000">
  <property name="kdenlive:audio_track">1</property>
  <property name="kdenlive:trackheight">64</property>
  <property name="kdenlive:timeline_active">1</property>
  <property name="kdenlive:collapsed">0</property>
  <property name="kdenlive:thumbs_format"/>
  <property name="kdenlive:audio_rec"/>
  <track hide="video" producer="playlist0"/>
  <track hide="video" producer="playlist1"/>
  <filter id="filter0">
   <property name="window">75</property>
   <property name="max_gain">20dB</property>
   <property name="channel_mask">-1</property>
   <property name="mlt_service">volume</property>
   <property name="internal_added">237</property>
   <property name="disable">1</property>
  </filter>
  <filter id="filter1">
   <property name="channel">-1</property>
   <property name="mlt_service">panner</property>
   <property name="internal_added">237</property>
   <property name="start">0.5</property>
   <property name="disable">1</property>
  </filter>
  <filter id="filter2">
   <property name="iec_scale">0</property>
   <property name="mlt_service">audiolevel</property>
   <property name="dbpeak">1</property>
   <property name="disable">1</property>
  </filter>
 </tractor>
 <chain id="chain0" out="00:00:46.933">
  <property name="length">1409</property>
  <property name="eof">pause</property>
  <property name="resource">橘雪莉3.wav</property>
  <property name="mlt_service">avformat-novalidate</property>
  <property name="seekable">1</property>
  <property name="audio_index">0</property>
  <property name="video_index">-1</property>
  <property name="astream">0</property>
  <property name="kdenlive:folderid">-1</property>
  <property name="kdenlive:id">4</property>
  <property name="kdenlive:control_uuid">{602f603d-c7ca-4448-ba59-65bb4fca27bf}</property>
  <property name="kdenlive:clip_type">1</property>
  <property name="kdenlive:file_size">3005484</property>
  <property name="kdenlive:file_hash">85a1644e2946d4948bc501579da8aa03</property>
  <property name="kdenlive:monitorPosition">0</property>
  <property name="kdenlive:kextractor">1</property>
  <property name="kdenlive:meta.extractor.Bitrate">512 kb/s</property>
  <property name="meta.media.nb_streams">1</property>
  <property name="meta.media.0.stream.type">audio</property>
  <property name="meta.media.0.codec.sample_fmt">s16</property>
  <property name="meta.media.0.codec.sample_rate">32000</property>
  <property name="meta.media.0.codec.channels">1</property>
  <property name="meta.media.0.codec.layout">mono</property>
  <property name="meta.media.0.codec.name">pcm_s16le</property>
  <property name="meta.media.0.codec.long_name">PCM signed 16-bit little-endian</property>
  <property name="meta.media.0.codec.bit_rate">512000</property>
  <property name="xml">was here</property>
  <property name="mute_on_pause">0</property>
  <property name="set.test_audio">0</property>
  <property name="set.test_image">1</property>
 </chain>
 <chain id="chain8" out="00:00:25.833">
  <property name="length">776</property>
  <property name="eof">pause</property>
  <property name="resource">橘雪莉4.wav</property>
  <property name="mlt_service">avformat-novalidate</property>
  <property name="seekable">1</property>
  <property name="audio_index">0</property>
  <property name="video_index">-1</property>
  <property name="astream">0</property>
  <property name="kdenlive:folderid">-1</property>
  <property name="kdenlive:id">5</property>
  <property name="kdenlive:control_uuid">{8427f791-a1dd-4588-8308-0379db02e0cd}</property>
  <property name="kdenlive:clip_type">1</property>
  <property name="kdenlive:file_size">1656364</property>
  <property name="kdenlive:file_hash">a4f559ce0888fa783dce9792a3f690a8</property>
  <property name="kdenlive:kextractor">1</property>
  <property name="kdenlive:meta.extractor.Bitrate">512 kb/s</property>
  <property name="meta.media.nb_streams">1</property>
  <property name="meta.media.0.stream.type">audio</property>
  <property name="meta.media.0.codec.sample_fmt">s16</property>
  <property name="meta.media.0.codec.sample_rate">32000</property>
  <property name="meta.media.0.codec.channels">1</property>
  <property name="meta.media.0.codec.layout">mono</property>
  <property name="meta.media.0.codec.name">pcm_s16le</property>
  <property name="meta.media.0.codec.long_name">PCM signed 16-bit little-endian</property>
  <property name="meta.media.0.codec.bit_rate">512000</property>
  <property name="xml">was here</property>
  <property name="mute_on_pause">0</property>
  <property name="set.test_audio">0</property>
  <property name="set.test_image">1</property>
 </chain>
 <chain id="chain9" out="00:01:04.733">
  <property name="length">1943</property>
  <property name="eof">pause</property>
  <property name="resource">橘雪莉5.wav</property>
  <property name="mlt_service">avformat-novalidate</property>
  <property name="seekable">1</property>
  <property name="audio_index">0</property>
  <property name="video_index">-1</property>
  <property name="astream">0</property>
  <property name="kdenlive:folderid">-1</property>
  <property name="kdenlive:id">6</property>
  <property name="kdenlive:control_uuid">{2236a0c8-f041-4a3d-b9a8-be551f32e063}</property>
  <property name="kdenlive:clip_type">1</property>
  <property name="kdenlive:file_size">4145964</property>
  <property name="kdenlive:file_hash">3f8760364b1c51eff7884c384d56d947</property>
  <property name="kdenlive:kextractor">1</property>
  <property name="kdenlive:meta.extractor.Bitrate">512 kb/s</property>
  <property name="meta.media.nb_streams">1</property>
  <property name="meta.media.0.stream.type">audio</property>
  <property name="meta.media.0.codec.sample_fmt">s16</property>
  <property name="meta.media.0.codec.sample_rate">32000</property>
  <property name="meta.media.0.codec.channels">1</property>
  <property name="meta.media.0.codec.layout">mono</property>
  <property name="meta.media.0.codec.name">pcm_s16le</property>
  <property name="meta.media.0.codec.long_name">PCM signed 16-bit little-endian</property>
  <property name="meta.media.0.codec.bit_rate">512000</property>
  <property name="xml">was here</property>
  <property name="mute_on_pause">0</property>
  <property name="set.test_audio">0</property>
  <property name="set.test_image">1</property>
 </chain>
 <chain id="chain10" out="00:00:59.900">
  <property name="length">1798</property>
  <property name="eof">pause</property>
  <property name="resource">橘雪莉6.wav</property>
  <property name="mlt_service">avformat-novalidate</property>
  <property name="seekable">1</property>
  <property name="audio_index">0</property>
  <property name="video_index">-1</property>
  <property name="astream">0</property>
  <property name="kdenlive:folderid">-1</property>
  <property name="kdenlive:id">7</property>
  <property name="kdenlive:control_uuid">{3b0aa70d-7b68-4fab-9370-cceab6153366}</property>
  <property name="kdenlive:clip_type">1</property>
  <property name="kdenlive:file_size">3834924</property>
  <property name="kdenlive:file_hash">1d1ece56ae89ded528a58ef3bbe2a3b3</property>
  <property name="kdenlive:kextractor">1</property>
  <property name="kdenlive:meta.extractor.Bitrate">512 kb/s</property>
  <property name="meta.media.nb_streams">1</property>
  <property name="meta.media.0.stream.type">audio</property>
  <property name="meta.media.0.codec.sample_fmt">s16</property>
  <property name="meta.media.0.codec.sample_rate">32000</property>
  <property name="meta.media.0.codec.channels">1</property>
  <property name="meta.media.0.codec.layout">mono</property>
  <property name="meta.media.0.codec.name">pcm_s16le</property>
  <property name="meta.media.0.codec.long_name">PCM signed 16-bit little-endian</property>
  <property name="meta.media.0.codec.bit_rate">512000</property>
  <property name="xml">was here</property>
  <property name="mute_on_pause">0</property>
  <property name="set.test_audio">0</property>
  <property name="set.test_image">1</property>
 </chain>
 <chain id="chain11" out="00:00:59.900">
  <property name="length">1798</property>
  <property name="eof">pause</property>
  <property name="resource">橘雪莉7.wav</property>
  <property name="mlt_service">avformat-novalidate</property>
  <property name="seekable">1</property>
  <property name="audio_index">0</property>
  <property name="video_index">-1</property>
  <property name="astream">0</property>
  <property name="kdenlive:folderid">-1</property>
  <property name="kdenlive:id">8</property>
  <property name="kdenlive:control_uuid">{f21a321a-07e3-4538-a2b1-b2428914e723}</property>
  <property name="kdenlive:clip_type">1</property>
  <property name="kdenlive:file_size">3836204</property>
  <property name="kdenlive:file_hash">3967c2255875c83f81dd501a8081dc3b</property>
  <property name="kdenlive:kextractor">1</property>
  <property name="kdenlive:meta.extractor.Bitrate">512 kb/s</property>
  <property name="meta.media.nb_streams">1</property>
  <property name="meta.media.0.stream.type">audio</property>
  <property name="meta.media.0.codec.sample_fmt">s16</property>
  <property name="meta.media.0.codec.sample_rate">32000</property>
  <property name="meta.media.0.codec.channels">1</property>
  <property name="meta.media.0.codec.layout">mono</property>
  <property name="meta.media.0.codec.name">pcm_s16le</property>
  <property name="meta.media.0.codec.long_name">PCM signed 16-bit little-endian</property>
  <property name="meta.media.0.codec.bit_rate">512000</property>
  <property name="xml">was here</property>
  <property name="mute_on_pause">0</property>
  <property name="set.test_audio">0</property>
  <property name="set.test_image">1</property>
 </chain>
 <chain id="chain12" out="00:00:04.833">
  <property name="length">146</property>
  <property name="eof">pause</property>
  <property name="resource">橘雪莉7-这里简单通分.wav</property>
  <property name="mlt_service">avformat-novalidate</property>
  <property name="seekable">1</property>
  <property name="audio_index">0</property>
  <property name="video_index">-1</property>
  <property name="astream">0</property>
  <property name="kdenlive:folderid">-1</property>
  <property name="kdenlive:id">11</property>
  <property name="kdenlive:control_uuid">{f4545ffa-016a-401a-aa66-cd0d6fba4137}</property>
  <property name="kdenlive:clip_type">1</property>
  <property name="kdenlive:file_size">312364</property>
  <property name="kdenlive:file_hash">dc1c9e28a57095a036bb488db964ce20</property>
  <property name="kdenlive:kextractor">1</property>
  <property name="kdenlive:meta.extractor.Bitrate">512 kb/s</property>
  <property name="meta.media.nb_streams">1</property>
  <property name="meta.media.0.stream.type">audio</property>
  <property name="meta.media.0.codec.sample_fmt">s16</property>
  <property name="meta.media.0.codec.sample_rate">32000</property>
  <property name="meta.media.0.codec.channels">1</property>
  <property name="meta.media.0.codec.layout">mono</property>
  <property name="meta.media.0.codec.name">pcm_s16le</property>
  <property name="meta.media.0.codec.long_name">PCM signed 16-bit little-endian</property>
  <property name="meta.media.0.codec.bit_rate">512000</property>
  <property name="xml">was here</property>
  <property name="mute_on_pause">0</property>
  <property name="set.test_audio">0</property>
  <property name="set.test_image">1</property>
 </chain>
 <chain id="chain13" out="00:01:04.500">
  <property name="length">1936</property>
  <property name="eof">pause</property>
  <property name="resource">橘雪莉8.wav</property>
  <property name="mlt_service">avformat-novalidate</property>
  <property name="seekable">1</property>
  <property name="audio_index">0</property>
  <property name="video_index">-1</property>
  <property name="astream">0</property>
  <property name="kdenlive:folderid">-1</property>
  <property name="kdenlive:id">9</property>
  <property name="kdenlive:control_uuid">{fc3e9ae0-9d46-471b-9612-bbf268c43174}</property>
  <property name="kdenlive:clip_type">1</property>
  <property name="kdenlive:file_size">4130604</property>
  <property name="kdenlive:file_hash">58fc061bf0b56dd0ecc44d21a9eff62a</property>
  <property name="kdenlive:kextractor">1</property>
  <property name="kdenlive:meta.extractor.Bitrate">512 kb/s</property>
  <property name="meta.media.nb_streams">1</property>
  <property name="meta.media.0.stream.type">audio</property>
  <property name="meta.media.0.codec.sample_fmt">s16</property>
  <property name="meta.media.0.codec.sample_rate">32000</property>
  <property name="meta.media.0.codec.channels">1</property>
  <property name="meta.media.0.codec.layout">mono</property>
  <property name="meta.media.0.codec.name">pcm_s16le</property>
  <property name="meta.media.0.codec.long_name">PCM signed 16-bit little-endian</property>
  <property name="meta.media.0.codec.bit_rate">512000</property>
  <property name="xml">was here</property>
  <property name="mute_on_pause">0</property>
  <property name="set.test_audio">0</property>
  <property name="set.test_image">1</property>
 </chain>
 <chain id="chain14" out="00:00:07.233">
  <property name="length">218</property>
  <property name="eof">pause</property>
  <property name="resource">橘雪莉9.wav</property>
  <property name="mlt_service">avformat-novalidate</property>
  <property name="seekable">1</property>
  <property name="audio_index">0</property>
  <property name="video_index">-1</property>
  <property name="astream">0</property>
  <property name="kdenlive:folderid">-1</property>
  <property name="kdenlive:id">10</property>
  <property name="kdenlive:control_uuid">{65b9be76-eba2-45da-8a88-2e9ac37ed41e}</property>
  <property name="kdenlive:clip_type">1</property>
  <property name="kdenlive:file_size">464684</property>
  <property name="kdenlive:file_hash">ccf919bfee6a2805bcb4faee0692114b</property>
  <property name="kdenlive:kextractor">1</property>
  <property name="kdenlive:meta.extractor.Bitrate">512 kb/s</property>
  <property name="meta.media.nb_streams">1</property>
  <property name="meta.media.0.stream.type">audio</property>
  <property name="meta.media.0.codec.sample_fmt">s16</property>
  <property name="meta.media.0.codec.sample_rate">32000</property>
  <property name="meta.media.0.codec.channels">1</property>
  <property name="meta.media.0.codec.layout">mono</property>
  <property name="meta.media.0.codec.name">pcm_s16le</property>
  <property name="meta.media.0.codec.long_name">PCM signed 16-bit little-endian</property>
  <property name="meta.media.0.codec.bit_rate">512000</property>
  <property name="xml">was here</property>
  <property name="mute_on_pause">0</property>
  <property name="set.test_audio">0</property>
  <property name="set.test_image">1</property>
 </chain>
 <playlist id="playlist2">
  <property name="kdenlive:audio_track">1</property>
  <entry in="00:00:00.000" out="00:00:01.533" producer="chain0">
   <property name="kdenlive:id">4</property>
  </entry>
  <entry in="00:00:02.633" out="00:00:04.900" producer="chain0">
   <property name="kdenlive:id">4</property>
  </entry>
  <entry in="00:00:05.100" out="00:00:06.800" producer="chain0">
   <property name="kdenlive:id">4</property>
  </entry>
  <entry in="00:00:07.233" out="00:00:08.467" producer="chain0">
   <property name="kdenlive:id">4</property>
  </entry>
  <entry in="00:00:09.700" out="00:00:14.433" producer="chain0">
   <property name="kdenlive:id">4</property>
  </entry>
  <entry in="00:00:14.567" out="00:00:17.667" producer="chain0">
   <property name="kdenlive:id">4</property>
  </entry>
  <entry in="00:00:18.667" out="00:00:20.600" producer="chain0">
   <property name="kdenlive:id">4</property>
  </entry>
  <entry in="00:00:21.633" out="00:00:24.300" producer="chain0">
   <property name="kdenlive:id">4</property>
  </entry>
  <entry in="00:00:25.367" out="00:00:27.533" producer="chain0">
   <property name="kdenlive:id">4</property>
  </entry>
  <entry in="00:00:28.533" out="00:00:31.333" producer="chain0">
   <property name="kdenlive:id">4</property>
  </entry>
  <entry in="00:00:31.700" out="00:00:34.433" producer="chain0">
   <property name="kdenlive:id">4</property>
  </entry>
  <entry in="00:00:35.767" out="00:00:37.167" producer="chain0">
   <property name="kdenlive:id">4</property>
  </entry>
  <entry in="00:00:37.433" out="00:00:38.900" producer="chain0">
   <property name="kdenlive:id">4</property>
  </entry>
  <entry in="00:00:39.133" out="00:00:41.400" producer="chain0">
   <property name="kdenlive:id">4</property>
  </entry>
  <entry in="00:00:41.767" out="00:00:42.967" producer="chain0">
   <property name="kdenlive:id">4</property>
  </entry>
  <entry in="00:00:44.033" out="00:00:46.367" producer="chain0">
   <property name="kdenlive:id">4</property>
  </entry>
  <entry in="00:00:00.000" out="00:00:07.167" producer="chain8">
   <property name="kdenlive:id">5</property>
  </entry>
  <entry in="00:00:08.100" out="00:00:09.733" producer="chain8">
   <property name="kdenlive:id">5</property>
  </entry>
  <entry in="00:00:10.733" out="00:00:12.600" producer="chain8">
   <property name="kdenlive:id">5</property>
  </entry>
  <entry in="00:00:13.600" out="00:00:14.867" producer="chain8">
   <property name="kdenlive:id">5</property>
  </entry>
  <entry in="00:00:15.300" out="00:00:16.600" producer="chain8">
   <property name="kdenlive:id">5</property>
  </entry>
  <entry in="00:00:17.700" out="00:00:18.400" producer="chain8">
   <property name="kdenlive:id">5</property>
  </entry>
  <entry in="00:00:18.567" out="00:00:20.833" producer="chain8">
   <property name="kdenlive:id">5</property>
  </entry>
  <entry in="00:00:21.600" out="00:00:23.533" producer="chain8">
   <property name="kdenlive:id">5</property>
  </entry>
  <entry in="00:00:23.700" out="00:00:25.067" producer="chain8">
   <property name="kdenlive:id">5</property>
  </entry>
  <entry in="00:00:00.000" out="00:00:02.700" producer="chain9">
   <property name="kdenlive:id">6</property>
  </entry>
  <entry in="00:00:03.600" out="00:00:05.333" producer="chain9">
   <property name="kdenlive:id">6</property>
  </entry>
  <entry in="00:00:06.200" out="00:00:08.767" producer="chain9">
   <property name="kdenlive:id">6</property>
  </entry>
  <entry in="00:00:09.667" out="00:00:12.133" producer="chain9">
   <property name="kdenlive:id">6</property>
  </entry>
  <entry in="00:00:12.567" out="00:00:16.967" producer="chain9">
   <property name="kdenlive:id">6</property>
  </entry>
  <entry in="00:00:17.700" out="00:00:20.300" producer="chain9">
   <property name="kdenlive:id">6</property>
  </entry>
  <entry in="00:00:21.500" out="00:00:23.400" producer="chain9">
   <property name="kdenlive:id">6</property>
  </entry>
  <entry in="00:00:23.633" out="00:00:26.533" producer="chain9">
   <property name="kdenlive:id">6</property>
  </entry>
  <entry in="00:00:27.633" out="00:00:30.200" producer="chain9">
   <property name="kdenlive:id">6</property>
  </entry>
  <entry in="00:00:31.367" out="00:00:33.033" producer="chain9">
   <property name="kdenlive:id">6</property>
  </entry>
  <entry in="00:00:33.800" out="00:00:35.200" producer="chain9">
   <property name="kdenlive:id">6</property>
  </entry>
  <entry in="00:00:35.400" out="00:00:36.467" producer="chain9">
   <property name="kdenlive:id">6</property>
  </entry>
  <entry in="00:00:37.433" out="00:00:39.400" producer="chain9">
   <property name="kdenlive:id">6</property>
  </entry>
  <entry in="00:00:39.833" out="00:00:42.500" producer="chain9">
   <property name="kdenlive:id">6</property>
  </entry>
  <entry in="00:00:43.567" out="00:00:44.667" producer="chain9">
   <property name="kdenlive:id">6</property>
  </entry>
  <entry in="00:00:45.800" out="00:00:48.100" producer="chain9">
   <property name="kdenlive:id">6</property>
  </entry>
  <entry in="00:00:48.333" out="00:00:49.000" producer="chain9">
   <property name="kdenlive:id">6</property>
  </entry>
  <entry in="00:00:49.267" out="00:00:50.167" producer="chain9">
   <property name="kdenlive:id">6</property>
  </entry>
  <entry in="00:00:51.567" out="00:00:52.700" producer="chain9">
   <property name="kdenlive:id">6</property>
  </entry>
  <entry in="00:00:53.800" out="00:00:55.200" producer="chain9">
   <property name="kdenlive:id">6</property>
  </entry>
  <entry in="00:00:56.400" out="00:00:58.967" producer="chain9">
   <property name="kdenlive:id">6</property>
  </entry>
  <entry in="00:00:59.200" out="00:01:00.767" producer="chain9">
   <property name="kdenlive:id">6</property>
  </entry>
  <entry in="00:01:01.033" out="00:01:02.667" producer="chain9">
   <property name="kdenlive:id">6</property>
  </entry>
  <entry in="00:01:02.833" out="00:01:03.833" producer="chain9">
   <property name="kdenlive:id">6</property>
  </entry>
  <entry in="00:00:00.000" out="00:00:04.933" producer="chain10">
   <property name="kdenlive:id">7</property>
  </entry>
  <entry in="00:00:05.233" out="00:00:07.967" producer="chain10">
   <property name="kdenlive:id">7</property>
  </entry>
  <entry in="00:00:09.533" out="00:00:11.367" producer="chain10">
   <property name="kdenlive:id">7</property>
  </entry>
  <entry in="00:00:11.767" out="00:00:13.167" producer="chain10">
   <property name="kdenlive:id">7</property>
  </entry>
  <entry in="00:00:14.267" out="00:00:15.867" producer="chain10">
   <property name="kdenlive:id">7</property>
  </entry>
  <entry in="00:00:16.200" out="00:00:17.233" producer="chain10">
   <property name="kdenlive:id">7</property>
  </entry>
  <entry in="00:00:17.467" out="00:00:19.600" producer="chain10">
   <property name="kdenlive:id">7</property>
  </entry>
  <entry in="00:00:20.900" out="00:00:23.033" producer="chain10">
   <property name="kdenlive:id">7</property>
  </entry>
  <entry in="00:00:23.933" out="00:00:24.767" producer="chain10">
   <property name="kdenlive:id">7</property>
  </entry>
  <entry in="00:00:25.100" out="00:00:26.033" producer="chain10">
   <property name="kdenlive:id">7</property>
  </entry>
  <entry in="00:00:26.233" out="00:00:26.767" producer="chain10">
   <property name="kdenlive:id">7</property>
  </entry>
  <entry in="00:00:27.267" out="00:00:28.267" producer="chain10">
   <property name="kdenlive:id">7</property>
  </entry>
  <entry in="00:00:29.300" out="00:00:30.400" producer="chain10">
   <property name="kdenlive:id">7</property>
  </entry>
  <entry in="00:00:31.433" out="00:00:33.233" producer="chain10">
   <property name="kdenlive:id">7</property>
  </entry>
  <entry in="00:00:34.167" out="00:00:35.300" producer="chain10">
   <property name="kdenlive:id">7</property>
  </entry>
  <entry in="00:00:36.533" out="00:00:40.300" producer="chain10">
   <property name="kdenlive:id">7</property>
  </entry>
  <entry in="00:00:41.233" out="00:00:43.867" producer="chain10">
   <property name="kdenlive:id">7</property>
  </entry>
  <entry in="00:00:45.333" out="00:00:48.900" producer="chain10">
   <property name="kdenlive:id">7</property>
  </entry>
  <entry in="00:00:49.967" out="00:00:52.633" producer="chain10">
   <property name="kdenlive:id">7</property>
  </entry>
  <entry in="00:00:53.600" out="00:00:56.500" producer="chain10">
   <property name="kdenlive:id">7</property>
  </entry>
  <entry in="00:00:57.700" out="00:00:59.033" producer="chain10">
   <property name="kdenlive:id">7</property>
  </entry>
  <entry in="00:00:00.000" out="00:00:02.200" producer="chain11">
   <property name="kdenlive:id">8</property>
  </entry>
  <entry in="00:00:02.533" out="00:00:04.100" producer="chain11">
   <property name="kdenlive:id">8</property>
  </entry>
  <entry in="00:00:04.467" out="00:00:05.600" producer="chain11">
   <property name="kdenlive:id">8</property>
  </entry>
  <entry in="00:00:05.833" out="00:00:07.333" producer="chain11">
   <property name="kdenlive:id">8</property>
  </entry>
  <entry in="00:00:08.300" out="00:00:09.967" producer="chain11">
   <property name="kdenlive:id">8</property>
  </entry>
  <entry in="00:00:10.600" out="00:00:12.100" producer="chain11">
   <property name="kdenlive:id">8</property>
  </entry>
  <entry in="00:00:12.367" out="00:00:13.733" producer="chain11">
   <property name="kdenlive:id">8</property>
  </entry>
  <entry in="00:00:14.000" out="00:00:20.933" producer="chain11">
   <property name="kdenlive:id">8</property>
  </entry>
  <entry in="00:00:21.767" out="00:00:22.933" producer="chain11">
   <property name="kdenlive:id">8</property>
  </entry>
  <entry in="00:00:23.200" out="00:00:25.300" producer="chain11">
   <property name="kdenlive:id">8</property>
  </entry>
  <entry in="00:00:00.000" out="00:00:01.200" producer="chain12">
   <property name="kdenlive:id">11</property>
  </entry>
  <entry in="00:00:02.333" out="00:00:04.033" producer="chain12">
   <property name="kdenlive:id">11</property>
  </entry>
  <entry in="00:00:31.233" out="00:00:32.900" producer="chain11">
   <property name="kdenlive:id">8</property>
  </entry>
  <entry in="00:00:33.933" out="00:00:36.500" producer="chain11">
   <property name="kdenlive:id">8</property>
  </entry>
  <entry in="00:00:36.733" out="00:00:39.100" producer="chain11">
   <property name="kdenlive:id">8</property>
  </entry>
  <entry in="00:00:39.900" out="00:00:41.300" producer="chain11">
   <property name="kdenlive:id">8</property>
  </entry>
  <entry in="00:00:42.100" out="00:00:49.833" producer="chain11">
   <property name="kdenlive:id">8</property>
  </entry>
  <entry in="00:00:50.767" out="00:00:53.100" producer="chain11">
   <property name="kdenlive:id">8</property>
  </entry>
  <entry in="00:00:54.100" out="00:00:55.633" producer="chain11">
   <property name="kdenlive:id">8</property>
  </entry>
  <entry in="00:00:56.600" out="00:00:58.933" producer="chain11">
   <property name="kdenlive:id">8</property>
  </entry>
  <entry in="00:00:00.000" out="00:00:01.867" producer="chain13">
   <property name="kdenlive:id">9</property>
  </entry>
  <entry in="00:00:02.133" out="00:00:07.900" producer="chain13">
   <property name="kdenlive:id">9</property>
  </entry>
  <entry in="00:00:08.200" out="00:00:09.133" producer="chain13">
   <property name="kdenlive:id">9</property>
  </entry>
  <entry in="00:00:09.300" out="00:00:10.667" producer="chain13">
   <property name="kdenlive:id">9</property>
  </entry>
  <entry in="00:00:11.367" out="00:00:13.133" producer="chain13">
   <property name="kdenlive:id">9</property>
  </entry>
  <entry in="00:00:13.933" out="00:00:16.967" producer="chain13">
   <property name="kdenlive:id">9</property>
  </entry>
  <entry in="00:00:18.067" out="00:00:20.067" producer="chain13">
   <property name="kdenlive:id">9</property>
  </entry>
  <entry in="00:00:20.300" out="00:00:22.333" producer="chain13">
   <property name="kdenlive:id">9</property>
  </entry>
  <entry in="00:00:22.533" out="00:00:24.567" producer="chain13">
   <property name="kdenlive:id">9</property>
  </entry>
  <entry in="00:00:24.833" out="00:00:26.467" producer="chain13">
   <property name="kdenlive:id">9</property>
  </entry>
  <entry in="00:00:26.600" out="00:00:27.667" producer="chain13">
   <property name="kdenlive:id">9</property>
  </entry>
  <entry in="00:00:28.800" out="00:00:32.400" producer="chain13">
   <property name="kdenlive:id">9</property>
  </entry>
  <entry in="00:00:33.500" out="00:00:34.500" producer="chain13">
   <property name="kdenlive:id">9</property>
  </entry>
  <entry in="00:00:36.000" out="00:00:37.367" producer="chain13">
   <property name="kdenlive:id">9</property>
  </entry>
  <entry in="00:00:37.633" out="00:00:38.733" producer="chain13">
   <property name="kdenlive:id">9</property>
  </entry>
  <entry in="00:00:40.333" out="00:00:42.033" producer="chain13">
   <property name="kdenlive:id">9</property>
  </entry>
  <entry in="00:00:42.267" out="00:00:43.667" producer="chain13">
   <property name="kdenlive:id">9</property>
  </entry>
  <entry in="00:00:44.767" out="00:00:47.433" producer="chain13">
   <property name="kdenlive:id">9</property>
  </entry>
  <entry in="00:00:47.733" out="00:00:52.333" producer="chain13">
   <property name="kdenlive:id">9</property>
  </entry>
  <entry in="00:00:52.567" out="00:00:53.900" producer="chain13">
   <property name="kdenlive:id">9</property>
  </entry>
  <entry in="00:00:55.100" out="00:00:55.500" producer="chain13">
   <property name="kdenlive:id">9</property>
  </entry>
  <entry in="00:00:55.667" out="00:00:57.067" producer="chain13">
   <property name="kdenlive:id">9</property>
  </entry>
  <entry in="00:00:58.167" out="00:01:00.167" producer="chain13">
   <property name="kdenlive:id">9</property>
  </entry>
  <entry in="00:01:01.800" out="00:01:03.900" producer="chain13">
   <property name="kdenlive:id">9</property>
  </entry>
  <entry in="00:00:00.000" out="00:00:00.967" producer="chain14">
   <property name="kdenlive:id">10</property>
  </entry>
  <entry in="00:00:01.400" out="00:00:02.267" producer="chain14">
   <property name="kdenlive:id">10</property>
  </entry>
  <entry in="00:00:03.500" out="00:00:04.300" producer="chain14">
   <property name="kdenlive:id">10</property>
  </entry>
  <entry in="00:00:04.600" out="00:00:06.367" producer="chain14">
   <property name="kdenlive:id">10</property>
  </entry>
 </playlist>
 <playlist id="playlist3">
  <property name="kdenlive:audio_track">1</property>
 </playlist>
 <tractor id="tractor1" in="00:00:00.000" out="00:04:06.333">
  <property name="kdenlive:audio_track">1</property>
  <property name="kdenlive:trackheight">64</property>
  <property name="kdenlive:timeline_active">1</property>
  <property name="kdenlive:collapsed">0</property>
  <property name="kdenlive:thumbs_format"/>
  <property name="kdenlive:audio_rec"/>
  <track hide="video" producer="playlist2"/>
  <track hide="video" producer="playlist3"/>
  <filter id="filter3">
   <property name="window">75</property>
   <property name="max_gain">20dB</property>
   <property name="channel_mask">-1</property>
   <property name="mlt_service">volume</property>
   <property name="internal_added">237</property>
   <property name="disable">1</property>
  </filter>
  <filter id="filter4">
   <property name="channel">-1</property>
   <property name="mlt_service">panner</property>
   <property name="internal_added">237</property>
   <property name="start">0.5</property>
   <property name="disable">1</property>
  </filter>
  <filter id="filter5">
   <property name="iec_scale">0</property>
   <property name="mlt_service">audiolevel</property>
   <property name="dbpeak">1</property>
   <property name="disable">1</property>
  </filter>
 </tractor>
 <playlist id="playlist4"/>
 <playlist id="playlist5"/>
 <tractor id="tractor2" in="00:00:00.000">
  <property name="kdenlive:trackheight">64</property>
  <property name="kdenlive:timeline_active">1</property>
  <property name="kdenlive:collapsed">0</property>
  <property name="kdenlive:thumbs_format"/>
  <property name="kdenlive:audio_rec"/>
  <track hide="audio" producer="playlist4"/>
  <track hide="audio" producer="playlist5"/>
 </tractor>
 <playlist id="playlist6"/>
 <playlist id="playlist7"/>
 <tractor id="tractor3" in="00:00:00.000">
  <property name="kdenlive:trackheight">64</property>
  <property name="kdenlive:timeline_active">1</property>
  <property name="kdenlive:collapsed">0</property>
  <property name="kdenlive:thumbs_format"/>
  <property name="kdenlive:audio_rec"/>
  <track hide="audio" producer="playlist6"/>
  <track hide="audio" producer="playlist7"/>
 </tractor>
 <tractor id="tractor4" in="00:00:00.000" out="00:04:06.333">
  <property name="kdenlive:duration">00:04:06.367</property>
  <property name="kdenlive:maxduration">7391</property>
  <property name="kdenlive:clipname">Sequence 1</property>
  <property name="kdenlive:description"/>
  <property name="kdenlive:uuid">{cb698824-0c0e-4b12-9a15-cb4fa45cae02}</property>
  <property name="kdenlive:producer_type">17</property>
  <property name="kdenlive:control_uuid">{cb698824-0c0e-4b12-9a15-cb4fa45cae02}</property>
  <property name="kdenlive:id">3</property>
  <property name="kdenlive:clip_type">0</property>
  <property name="kdenlive:file_hash">5c247ecb5eaa69d79b97ed7645b262db</property>
  <property name="kdenlive:folderid">2</property>
  <property name="kdenlive:sequenceproperties.activeTrack">1</property>
  <property name="kdenlive:sequenceproperties.audioTarget">1</property>
  <property name="kdenlive:sequenceproperties.disablepreview">0</property>
  <property name="kdenlive:sequenceproperties.documentuuid">{cb698824-0c0e-4b12-9a15-cb4fa45cae02}</property>
  <property name="kdenlive:sequenceproperties.hasAudio">1</property>
  <property name="kdenlive:sequenceproperties.hasVideo">1</property>
  <property name="kdenlive:sequenceproperties.position">7390</property>
  <property name="kdenlive:sequenceproperties.scrollPos">10531</property>
  <property name="kdenlive:sequenceproperties.tracks">4</property>
  <property name="kdenlive:sequenceproperties.tracksCount">4</property>
  <property name="kdenlive:sequenceproperties.verticalzoom">1</property>
  <property name="kdenlive:sequenceproperties.videoTarget">2</property>
  <property name="kdenlive:sequenceproperties.zonein">0</property>
  <property name="kdenlive:sequenceproperties.zoneout">75</property>
  <property name="kdenlive:sequenceproperties.zoom">6</property>
  <property name="kdenlive:sequenceproperties.groups">[
]
</property>
  <property name="kdenlive:sequenceproperties.guides">[
]
</property>
  <track producer="producer0"/>
  <track producer="tractor0"/>
  <track producer="tractor1"/>
  <track producer="tractor2"/>
  <track producer="tractor3"/>
  <transition id="transition0">
   <property name="a_track">0</property>
   <property name="b_track">1</property>
   <property name="mlt_service">mix</property>
   <property name="kdenlive_id">mix</property>
   <property name="internal_added">237</property>
   <property name="always_active">1</property>
   <property name="accepts_blanks">1</property>
   <property name="sum">1</property>
  </transition>
  <transition id="transition1">
   <property name="a_track">0</property>
   <property name="b_track">2</property>
   <property name="mlt_service">mix</property>
   <property name="kdenlive_id">mix</property>
   <property name="internal_added">237</property>
   <property name="always_active">1</property>
   <property name="accepts_blanks">1</property>
   <property name="sum">1</property>
  </transition>
  <transition id="transition2">
   <property name="a_track">0</property>
   <property name="b_track">3</property>
   <property name="compositing">0</property>
   <property name="distort">0</property>
   <property name="rotate_center">0</property>
   <property name="mlt_service">qtblend</property>
   <property name="kdenlive_id">qtblend</property>
   <property name="internal_added">237</property>
   <property name="always_active">1</property>
  </transition>
  <transition id="transition3">
   <property name="a_track">0</property>
   <property name="b_track">4</property>
   <property name="compositing">0</property>
   <property name="distort">0</property>
   <property name="rotate_center">0</property>
   <property name="mlt_service">qtblend</property>
   <property name="kdenlive_id">qtblend</property>
   <property name="internal_added">237</property>
   <property name="always_active">1</property>
  </transition>
  <filter id="filter6">
   <property name="window">75</property>
   <property name="max_gain">20dB</property>
   <property name="channel_mask">-1</property>
   <property name="mlt_service">volume</property>
   <property name="internal_added">237</property>
   <property name="disable">1</property>
  </filter>
  <filter id="filter7">
   <property name="channel">-1</property>
   <property name="mlt_service">panner</property>
   <property name="internal_added">237</property>
   <property name="start">0.5</property>
   <property name="disable">1</property>
  </filter>
 </tractor>
 <chain id="chain15" out="00:00:04.833">
  <property name="length">146</property>
  <property name="eof">pause</property>
  <property name="resource">橘雪莉7-这里简单通分.wav</property>
  <property name="mlt_service">avformat</property>
  <property name="meta.media.nb_streams">1</property>
  <property name="meta.media.0.stream.type">audio</property>
  <property name="meta.media.0.codec.sample_fmt">s16</property>
  <property name="meta.media.0.codec.sample_rate">32000</property>
  <property name="meta.media.0.codec.channels">1</property>
  <property name="meta.media.0.codec.layout">mono</property>
  <property name="meta.media.0.codec.name">pcm_s16le</property>
  <property name="meta.media.0.codec.long_name">PCM signed 16-bit little-endian</property>
  <property name="meta.media.0.codec.bit_rate">512000</property>
  <property name="seekable">1</property>
  <property name="audio_index">0</property>
  <property name="video_index">-1</property>
  <property name="astream">0</property>
  <property name="kdenlive:folderid">-1</property>
  <property name="kdenlive:id">11</property>
  <property name="kdenlive:control_uuid">{f4545ffa-016a-401a-aa66-cd0d6fba4137}</property>
  <property name="kdenlive:clip_type">1</property>
  <property name="kdenlive:file_size">312364</property>
  <property name="kdenlive:file_hash">dc1c9e28a57095a036bb488db964ce20</property>
  <property name="kdenlive:kextractor">1</property>
  <property name="kdenlive:meta.extractor.Bitrate">512 kb/s</property>
 </chain>
 <playlist id="main_bin">
  <property name="kdenlive:folder.-1.2">Sequences</property>
  <property name="kdenlive:sequenceFolder">2</property>
  <property name="kdenlive:docproperties.activetimeline">{cb698824-0c0e-4b12-9a15-cb4fa45cae02}</property>
  <property name="kdenlive:docproperties.audioChannels">2</property>
  <property name="kdenlive:docproperties.binsort">0</property>
  <property name="kdenlive:docproperties.browserurl">D:/js_practice/slidev-math-videos/media/251114/</property>
  <property name="kdenlive:docproperties.documentid">1769692236073</property>
  <property name="kdenlive:docproperties.enableTimelineZone">0</property>
  <property name="kdenlive:docproperties.enableexternalproxy">0</property>
  <property name="kdenlive:docproperties.enableproxy">1</property>
  <property name="kdenlive:docproperties.externalproxyparams">./;;.LRV;./;;.MP4</property>
  <property name="kdenlive:docproperties.generateimageproxy">0</property>
  <property name="kdenlive:docproperties.generateproxy">0</property>
  <property name="kdenlive:docproperties.guidesCategories">[
    {
        "color": "#9b59b6",
        "comment": "类别 1",
        "index": 0
    },
    {
        "color": "#3daee9",
        "comment": "类别 2",
        "index": 1
    },
    {
        "color": "#1abc9c",
        "comment": "类别 3",
        "index": 2
    },
    {
        "color": "#1cdc9a",
        "comment": "类别 4",
        "index": 3
    },
    {
        "color": "#c9ce3b",
        "comment": "类别 5",
        "index": 4
    },
    {
        "color": "#fdbc4b",
        "comment": "类别 6",
        "index": 5
    },
    {
        "color": "#f39c1f",
        "comment": "类别 7",
        "index": 6
    },
    {
        "color": "#f47750",
        "comment": "类别 8",
        "index": 7
    },
    {
        "color": "#da4453",
        "comment": "类别 9",
        "index": 8
    }
]
</property>
  <property name="kdenlive:docproperties.kdenliveversion">25.08.3</property>
  <property name="kdenlive:docproperties.opensequences">{cb698824-0c0e-4b12-9a15-cb4fa45cae02}</property>
  <property name="kdenlive:docproperties.previewextension"/>
  <property name="kdenlive:docproperties.previewparameters"/>
  <property name="kdenlive:docproperties.profile">atsc_1080p_30</property>
  <property name="kdenlive:docproperties.proxyextension"/>
  <property name="kdenlive:docproperties.proxyimageminsize">2000</property>
  <property name="kdenlive:docproperties.proxyimagesize">800</property>
  <property name="kdenlive:docproperties.proxyminsize">1000</property>
  <property name="kdenlive:docproperties.proxyparams"/>
  <property name="kdenlive:docproperties.proxyresize">640</property>
  <property name="kdenlive:docproperties.seekOffset">7500</property>
  <property name="kdenlive:docproperties.sessionid">{827379ca-8830-413f-a273-4713ec540bf1}</property>
  <property name="kdenlive:docproperties.uuid">{cb698824-0c0e-4b12-9a15-cb4fa45cae02}</property>
  <property name="kdenlive:docproperties.version">1.1</property>
  <property name="kdenlive:expandedFolders"/>
  <property name="kdenlive:binZoom">4</property>
  <property name="kdenlive:extraBins">project_bin:-1:0</property>
  <property name="kdenlive:documentnotes"/>
  <property name="kdenlive:documentnotesversion">2</property>
  <property name="kdenlive:docproperties.rendercategory">Audio only</property>
  <property name="kdenlive:docproperties.rendercustomquality">-1</property>
  <property name="kdenlive:docproperties.renderendguide">-1</property>
  <property name="kdenlive:docproperties.renderexportaudio">0</property>
  <property name="kdenlive:docproperties.renderfullcolorrange">0</property>
  <property name="kdenlive:docproperties.rendermode">0</property>
  <property name="kdenlive:docproperties.renderplay">0</property>
  <property name="kdenlive:docproperties.renderpreview">0</property>
  <property name="kdenlive:docproperties.renderprofile">MP3</property>
  <property name="kdenlive:docproperties.renderrescale">0</property>
  <property name="kdenlive:docproperties.renderrescaleheight">540</property>
  <property name="kdenlive:docproperties.renderrescalewidth">960</property>
  <property name="kdenlive:docproperties.renderspeed">6</property>
  <property name="kdenlive:docproperties.renderstartguide">-1</property>
  <property name="kdenlive:docproperties.renderstemaudio">0</property>
  <property name="kdenlive:docproperties.rendertcoverlay">0</property>
  <property name="kdenlive:docproperties.rendertctype">-1</property>
  <property name="kdenlive:docproperties.rendertwopass">0</property>
  <property name="kdenlive:docproperties.renderurl">橘雪莉-文字稿2-merged.mp3</property>
  <property name="xml_retain">1</property>
  <entry in="00:00:00.000" out="00:00:46.933" producer="chain1"/>
  <entry in="00:00:00.000" out="00:00:25.833" producer="chain2"/>
  <entry in="00:00:00.000" out="00:01:04.733" producer="chain3"/>
  <entry in="00:00:00.000" out="00:00:59.900" producer="chain4"/>
  <entry in="00:00:00.000" out="00:00:59.900" producer="chain5"/>
  <entry in="00:00:00.000" out="00:01:04.500" producer="chain6"/>
  <entry in="00:00:00.000" out="00:00:07.233" producer="chain7"/>
  <entry in="00:00:00.000" out="00:00:46.933" producer="tractor4"/>
  <entry in="00:00:00.000" out="00:00:04.833" producer="chain15"/>
 </playlist>
 <tractor id="tractor5" in="00:00:00.000" out="00:04:06.333">
  <property name="kdenlive:projectTractor">1</property>
  <track in="00:00:00.000" out="00:04:06.333" producer="tractor4"/>
 </tractor>
</mlt>
