<?xml version='1.0' encoding='utf-8'?>
<mlt LC_NUMERIC="en_US.UTF-8" producer="main_bin" root="D:/js_practice/slidev-math-videos/media/251210" version="7.33.0">
    <profile colorspace="709" description="HD 1080p 30 fps" display_aspect_den="9" display_aspect_num="16" frame_rate_den="1" frame_rate_num="30" height="1080" progressive="1" sample_aspect_den="1" sample_aspect_num="1" width="1920" />
    <producer id="producer0" in="00:00:00.000" out="00:10:38.767">
        <property name="length">2147483647</property>
        <property name="eof">continue</property>
        <property name="resource">black</property>
        <property name="aspect_ratio">1</property>
        <property name="mlt_service">color</property>
        <property name="kdenlive:playlistid">black_track</property>
        <property name="mlt_image_format">rgba</property>
        <property name="set.test_audio">0</property>
    </producer>
    <playlist id="playlist0">
        <property name="kdenlive:audio_track">1</property>
    </playlist>
    <playlist id="playlist1">
        <property name="kdenlive:audio_track">1</property>
    </playlist>
    <tractor id="tractor0" in="00:00:00.000">
        <property name="kdenlive:audio_track">1</property>
        <property name="kdenlive:trackheight">64</property>
        <property name="kdenlive:timeline_active">1</property>
        <property name="kdenlive:collapsed">0</property>
        <property name="kdenlive:thumbs_format" />
        <property name="kdenlive:audio_rec" />
        <track hide="video" producer="playlist0" />
        <track hide="video" producer="playlist1" />
        <filter id="filter0">
            <property name="window">75</property>
            <property name="max_gain">20dB</property>
            <property name="channel_mask">-1</property>
            <property name="mlt_service">volume</property>
            <property name="internal_added">237</property>
            <property name="disable">1</property>
        </filter>
        <filter id="filter1">
            <property name="channel">-1</property>
            <property name="mlt_service">panner</property>
            <property name="internal_added">237</property>
            <property name="start">0.5</property>
            <property name="disable">1</property>
        </filter>
        <filter id="filter2">
            <property name="iec_scale">0</property>
            <property name="mlt_service">audiolevel</property>
            <property name="dbpeak">1</property>
            <property name="disable">1</property>
        </filter>
    </tractor>
    <chain id="chain0" out="00:05:58.900">
        <property name="length">10768</property>
        <property name="eof">pause</property>
        <property name="resource">新-纳西妲遇到两道涉及数论的数列题，哥哥姐姐们可以帮帮她吗.wav</property>
        <property name="mlt_service">avformat-novalidate</property>
        <property name="seekable">1</property>
        <property name="audio_index">0</property>
        <property name="video_index">-1</property>
        <property name="astream">0</property>
        <property name="kdenlive:folderid">-1</property>
        <property name="kdenlive:id">4</property>
        <property name="kdenlive:control_uuid">{292d07dd-35a3-4ab3-8b2b-1765809444b0}</property>
        <property name="kdenlive:clip_type">1</property>
        <property name="kdenlive:file_size">34456364</property>
        <property name="kdenlive:file_hash">54441eea31f469ded8076b75f32afe54</property>
        <property name="kdenlive:kextractor">1</property>
        <property name="kdenlive:meta.extractor.Bitrate">768 kb/s</property>
        <property name="kdenlive:monitorPosition">0</property>
        <property name="meta.media.nb_streams">1</property>
        <property name="meta.media.0.stream.type">audio</property>
        <property name="meta.media.0.codec.sample_fmt">s16</property>
        <property name="meta.media.0.codec.sample_rate">48000</property>
        <property name="meta.media.0.codec.channels">1</property>
        <property name="meta.media.0.codec.layout">mono</property>
        <property name="meta.media.0.codec.name">pcm_s16le</property>
        <property name="meta.media.0.codec.long_name">PCM signed 16-bit little-endian</property>
        <property name="meta.media.0.codec.bit_rate">768000</property>
        <property name="xml">was here</property>
        <property name="mute_on_pause">0</property>
        <property name="set.test_audio">0</property>
        <property name="set.test_image">1</property>
    </chain>
    <chain id="chain1" out="00:05:48.133">
        <property name="length">10445</property>
        <property name="eof">pause</property>
        <property name="resource">旧-纳西妲遇到两道涉及数论的数列题，哥哥姐姐们可以帮帮她吗.wav</property>
        <property name="mlt_service">avformat-novalidate</property>
        <property name="seekable">1</property>
        <property name="audio_index">0</property>
        <property name="video_index">-1</property>
        <property name="astream">0</property>
        <property name="kdenlive:folderid">-1</property>
        <property name="kdenlive:id">5</property>
        <property name="kdenlive:control_uuid">{1c7f389f-06ee-4afa-848d-3cb048f1b09c}</property>
        <property name="kdenlive:clip_type">1</property>
        <property name="kdenlive:file_size">33423404</property>
        <property name="kdenlive:file_hash">ba351b016a83dc203511465ee8afce30</property>
        <property name="kdenlive:monitorPosition">0</property>
        <property name="kdenlive:kextractor">1</property>
        <property name="kdenlive:meta.extractor.Bitrate">768 kb/s</property>
        <property name="meta.media.nb_streams">1</property>
        <property name="meta.media.0.stream.type">audio</property>
        <property name="meta.media.0.codec.sample_fmt">s16</property>
        <property name="meta.media.0.codec.sample_rate">48000</property>
        <property name="meta.media.0.codec.channels">1</property>
        <property name="meta.media.0.codec.layout">mono</property>
        <property name="meta.media.0.codec.name">pcm_s16le</property>
        <property name="meta.media.0.codec.long_name">PCM signed 16-bit little-endian</property>
        <property name="meta.media.0.codec.bit_rate">768000</property>
        <property name="xml">was here</property>
        <property name="mute_on_pause">0</property>
        <property name="set.test_audio">0</property>
        <property name="set.test_image">1</property>
    </chain>
    <playlist id="playlist2">
        <property name="kdenlive:audio_track">1</property>
        <entry in="00:00:00.000" out="00:01:11.700" producer="chain0">
            <property name="kdenlive:id">4</property>
        </entry>
        <entry in="00:01:11.900" out="00:01:12.767" producer="chain1">
            <property name="kdenlive:id">5</property>
        </entry>
        <entry in="00:01:13.267" out="00:01:13.800" producer="chain0">
            <property name="kdenlive:id">4</property>
        </entry>
        <entry in="00:01:14.200" out="00:01:24.133" producer="chain0">
            <property name="kdenlive:id">4</property>
        </entry>
        <entry in="00:01:24.467" out="00:01:26.700" producer="chain0">
            <property name="kdenlive:id">4</property>
        </entry>
        <entry in="00:01:27.133" out="00:01:39.433" producer="chain0">
            <property name="kdenlive:id">4</property>
        </entry>
        <entry in="00:01:39.800" out="00:01:44.800" producer="chain0">
            <property name="kdenlive:id">4</property>
        </entry>
        <entry in="00:01:44.900" out="00:02:18.933" producer="chain0">
            <property name="kdenlive:id">4</property>
        </entry>
        <entry in="00:02:19.300" out="00:02:30.567" producer="chain0">
            <property name="kdenlive:id">4</property>
        </entry>
        <entry in="00:02:30.700" out="00:02:34.933" producer="chain0">
            <property name="kdenlive:id">4</property>
        </entry>
        <entry in="00:02:35.300" out="00:02:37.400" producer="chain0">
            <property name="kdenlive:id">4</property>
        </entry>
        <entry in="00:02:37.833" out="00:02:39.200" producer="chain0">
            <property name="kdenlive:id">4</property>
        </entry>
        <entry in="00:02:39.367" out="00:02:51.700" producer="chain0">
            <property name="kdenlive:id">4</property>
        </entry>
        <entry in="00:02:52.000" out="00:02:53.067" producer="chain0">
            <property name="kdenlive:id">4</property>
        </entry>
        <entry in="00:02:53.467" out="00:03:03.200" producer="chain0">
            <property name="kdenlive:id">4</property>
        </entry>
        <entry in="00:03:03.733" out="00:03:09.500" producer="chain0">
            <property name="kdenlive:id">4</property>
        </entry>
        <entry in="00:03:11.133" out="00:03:12.833" producer="chain1">
            <property name="kdenlive:id">5</property>
        </entry>
        <entry in="00:03:11.567" out="00:03:12.667" producer="chain0">
            <property name="kdenlive:id">4</property>
        </entry>
        <entry in="00:03:13.800" out="00:03:15.000" producer="chain0">
            <property name="kdenlive:id">4</property>
        </entry>
        <entry in="00:03:15.233" out="00:03:23.867" producer="chain0">
            <property name="kdenlive:id">4</property>
        </entry>
        <entry in="00:03:24.100" out="00:03:37.700" producer="chain0">
            <property name="kdenlive:id">4</property>
        </entry>
        <entry in="00:03:38.033" out="00:03:45.267" producer="chain0">
            <property name="kdenlive:id">4</property>
        </entry>
        <entry in="00:03:45.667" out="00:03:48.600" producer="chain0">
            <property name="kdenlive:id">4</property>
        </entry>
        <entry in="00:03:49.100" out="00:03:51.900" producer="chain0">
            <property name="kdenlive:id">4</property>
        </entry>
        <entry in="00:03:52.333" out="00:03:56.500" producer="chain0">
            <property name="kdenlive:id">4</property>
        </entry>
        <entry in="00:03:56.933" out="00:03:58.467" producer="chain0">
            <property name="kdenlive:id">4</property>
        </entry>
        <entry in="00:03:58.700" out="00:03:59.133" producer="chain0">
            <property name="kdenlive:id">4</property>
        </entry>
        <entry in="00:03:59.700" out="00:04:01.133" producer="chain0">
            <property name="kdenlive:id">4</property>
        </entry>
        <entry in="00:04:01.600" out="00:04:05.800" producer="chain0">
            <property name="kdenlive:id">4</property>
        </entry>
        <entry in="00:04:06.233" out="00:04:07.500" producer="chain0">
            <property name="kdenlive:id">4</property>
        </entry>
        <entry in="00:04:07.833" out="00:04:10.867" producer="chain0">
            <property name="kdenlive:id">4</property>
        </entry>
        <entry in="00:04:11.233" out="00:04:40.833" producer="chain0">
            <property name="kdenlive:id">4</property>
        </entry>
        <entry in="00:01:11.900" out="00:01:12.200" producer="chain1">
            <property name="kdenlive:id">5</property>
        </entry>
        <entry in="00:04:54.833" out="00:04:55.033" producer="chain0">
            <property name="kdenlive:id">4</property>
        </entry>
        <entry in="00:04:43.133" out="00:04:44.233" producer="chain0">
            <property name="kdenlive:id">4</property>
        </entry>
        <entry in="00:04:44.567" out="00:04:48.367" producer="chain0">
            <property name="kdenlive:id">4</property>
        </entry>
        <entry in="00:04:48.833" out="00:04:50.700" producer="chain0">
            <property name="kdenlive:id">4</property>
        </entry>
        <entry in="00:04:51.267" out="00:04:52.200" producer="chain0">
            <property name="kdenlive:id">4</property>
        </entry>
        <entry in="00:04:52.433" out="00:04:52.967" producer="chain0">
            <property name="kdenlive:id">4</property>
        </entry>
        <entry in="00:04:53.567" out="00:04:54.300" producer="chain0">
            <property name="kdenlive:id">4</property>
        </entry>
        <entry in="00:04:54.833" out="00:04:55.100" producer="chain0">
            <property name="kdenlive:id">4</property>
        </entry>
        <entry in="00:04:55.133" out="00:04:55.733" producer="chain0">
            <property name="kdenlive:id">4</property>
        </entry>
        <entry in="00:04:56.133" out="00:04:56.933" producer="chain0">
            <property name="kdenlive:id">4</property>
        </entry>
        <entry in="00:04:57.500" out="00:04:58.233" producer="chain0">
            <property name="kdenlive:id">4</property>
        </entry>
        <entry in="00:04:58.733" out="00:05:02.333" producer="chain0">
            <property name="kdenlive:id">4</property>
        </entry>
        <entry in="00:05:02.767" out="00:05:03.567" producer="chain0">
            <property name="kdenlive:id">4</property>
        </entry>
        <entry in="00:05:04.000" out="00:05:08.400" producer="chain0">
            <property name="kdenlive:id">4</property>
        </entry>
        <entry in="00:05:08.967" out="00:05:09.933" producer="chain0">
            <property name="kdenlive:id">4</property>
        </entry>
        <entry in="00:05:10.267" out="00:05:12.667" producer="chain0">
            <property name="kdenlive:id">4</property>
        </entry>
        <entry in="00:05:13.067" out="00:05:14.000" producer="chain0">
            <property name="kdenlive:id">4</property>
        </entry>
        <entry in="00:05:14.433" out="00:05:16.233" producer="chain0">
            <property name="kdenlive:id">4</property>
        </entry>
        <entry in="00:05:16.700" out="00:05:42.400" producer="chain0">
            <property name="kdenlive:id">4</property>
        </entry>
        <entry in="00:05:43.033" out="00:05:49.900" producer="chain0">
            <property name="kdenlive:id">4</property>
        </entry>
        <entry in="00:05:50.167" out="00:05:51.033" producer="chain0">
            <property name="kdenlive:id">4</property>
        </entry>
        <entry in="00:05:51.500" out="00:05:58.900" producer="chain0">
            <property name="kdenlive:id">4</property>
        </entry>
    </playlist>
    <playlist id="playlist3">
        <property name="kdenlive:audio_track">1</property>
    </playlist>
    <tractor id="tractor1" in="00:00:00.000" out="00:05:38.733">
        <property name="kdenlive:audio_track">1</property>
        <property name="kdenlive:trackheight">64</property>
        <property name="kdenlive:timeline_active">1</property>
        <property name="kdenlive:collapsed">0</property>
        <property name="kdenlive:thumbs_format" />
        <property name="kdenlive:audio_rec" />
        <track hide="video" producer="playlist2" />
        <track hide="video" producer="playlist3" />
        <filter id="filter3">
            <property name="window">75</property>
            <property name="max_gain">20dB</property>
            <property name="channel_mask">-1</property>
            <property name="mlt_service">volume</property>
            <property name="internal_added">237</property>
            <property name="disable">1</property>
        </filter>
        <filter id="filter4">
            <property name="channel">-1</property>
            <property name="mlt_service">panner</property>
            <property name="internal_added">237</property>
            <property name="start">0.5</property>
            <property name="disable">1</property>
        </filter>
        <filter id="filter5">
            <property name="iec_scale">0</property>
            <property name="mlt_service">audiolevel</property>
            <property name="dbpeak">1</property>
            <property name="disable">1</property>
        </filter>
    </tractor>
    <playlist id="playlist4" />
    <playlist id="playlist5" />
    <tractor id="tractor2" in="00:00:00.000">
        <property name="kdenlive:trackheight">64</property>
        <property name="kdenlive:timeline_active">1</property>
        <property name="kdenlive:collapsed">0</property>
        <property name="kdenlive:thumbs_format" />
        <property name="kdenlive:audio_rec" />
        <track hide="audio" producer="playlist4" />
        <track hide="audio" producer="playlist5" />
    </tractor>
    <playlist id="playlist6" />
    <playlist id="playlist7" />
    <tractor id="tractor3" in="00:00:00.000">
        <property name="kdenlive:trackheight">64</property>
        <property name="kdenlive:timeline_active">1</property>
        <property name="kdenlive:collapsed">0</property>
        <property name="kdenlive:thumbs_format" />
        <property name="kdenlive:audio_rec" />
        <track hide="audio" producer="playlist6" />
        <track hide="audio" producer="playlist7" />
    </tractor>
    <tractor id="{17a5f420-0b32-4b43-adca-eec9f3d4bac2}" in="00:00:00.000" out="00:05:38.733">
        <property name="kdenlive:uuid">{17a5f420-0b32-4b43-adca-eec9f3d4bac2}</property>
        <property name="kdenlive:clipname">Sequence 1</property>
        <property name="kdenlive:sequenceproperties.hasAudio">1</property>
        <property name="kdenlive:sequenceproperties.hasVideo">1</property>
        <property name="kdenlive:sequenceproperties.activeTrack">1</property>
        <property name="kdenlive:sequenceproperties.tracksCount">4</property>
        <property name="kdenlive:sequenceproperties.documentuuid">{17a5f420-0b32-4b43-adca-eec9f3d4bac2}</property>
        <property name="kdenlive:control_uuid">{17a5f420-0b32-4b43-adca-eec9f3d4bac2}</property>
        <property name="kdenlive:duration">00:05:38.767</property>
        <property name="kdenlive:maxduration">10163</property>
        <property name="kdenlive:producer_type">17</property>
        <property name="kdenlive:id">3</property>
        <property name="kdenlive:clip_type">0</property>
        <property name="kdenlive:file_size">0</property>
        <property name="kdenlive:folderid">2</property>
        <property name="kdenlive:sequenceproperties.audioTarget">1</property>
        <property name="kdenlive:sequenceproperties.disablepreview">0</property>
        <property name="kdenlive:sequenceproperties.position">10162</property>
        <property name="kdenlive:sequenceproperties.scrollPos">5683</property>
        <property name="kdenlive:sequenceproperties.tracks">4</property>
        <property name="kdenlive:sequenceproperties.verticalzoom">1</property>
        <property name="kdenlive:sequenceproperties.videoTarget">2</property>
        <property name="kdenlive:sequenceproperties.zonein">0</property>
        <property name="kdenlive:sequenceproperties.zoneout">75</property>
        <property name="kdenlive:sequenceproperties.zoom">6</property>
        <property name="kdenlive:sequenceproperties.groups">[
            ]
        </property>
        <property name="kdenlive:sequenceproperties.guides">[
            ]
        </property>
        <track producer="producer0" />
        <track producer="tractor0" />
        <track producer="tractor1" />
        <track producer="tractor2" />
        <track producer="tractor3" />
        <transition id="transition0">
            <property name="a_track">0</property>
            <property name="b_track">1</property>
            <property name="mlt_service">mix</property>
            <property name="kdenlive_id">mix</property>
            <property name="internal_added">237</property>
            <property name="always_active">1</property>
            <property name="accepts_blanks">1</property>
            <property name="sum">1</property>
        </transition>
        <transition id="transition1">
            <property name="a_track">0</property>
            <property name="b_track">2</property>
            <property name="mlt_service">mix</property>
            <property name="kdenlive_id">mix</property>
            <property name="internal_added">237</property>
            <property name="always_active">1</property>
            <property name="accepts_blanks">1</property>
            <property name="sum">1</property>
        </transition>
        <transition id="transition2">
            <property name="a_track">0</property>
            <property name="b_track">3</property>
            <property name="compositing">0</property>
            <property name="distort">0</property>
            <property name="rotate_center">0</property>
            <property name="mlt_service">qtblend</property>
            <property name="kdenlive_id">qtblend</property>
            <property name="internal_added">237</property>
            <property name="always_active">1</property>
        </transition>
        <transition id="transition3">
            <property name="a_track">0</property>
            <property name="b_track">4</property>
            <property name="compositing">0</property>
            <property name="distort">0</property>
            <property name="rotate_center">0</property>
            <property name="mlt_service">qtblend</property>
            <property name="kdenlive_id">qtblend</property>
            <property name="internal_added">237</property>
            <property name="always_active">1</property>
        </transition>
        <filter id="filter6">
            <property name="window">75</property>
            <property name="max_gain">20dB</property>
            <property name="channel_mask">-1</property>
            <property name="mlt_service">volume</property>
            <property name="internal_added">237</property>
            <property name="disable">1</property>
        </filter>
        <filter id="filter7">
            <property name="channel">-1</property>
            <property name="mlt_service">panner</property>
            <property name="internal_added">237</property>
            <property name="start">0.5</property>
            <property name="disable">1</property>
        </filter>
    </tractor>
    <chain id="chain2" out="00:05:58.900">
        <property name="length">10768</property>
        <property name="eof">pause</property>
        <property name="resource">新-纳西妲遇到两道涉及数论的数列题，哥哥姐姐们可以帮帮她吗.wav</property>
        <property name="mlt_service">avformat</property>
        <property name="meta.media.nb_streams">1</property>
        <property name="meta.media.0.stream.type">audio</property>
        <property name="meta.media.0.codec.sample_fmt">s16</property>
        <property name="meta.media.0.codec.sample_rate">48000</property>
        <property name="meta.media.0.codec.channels">1</property>
        <property name="meta.media.0.codec.layout">mono</property>
        <property name="meta.media.0.codec.name">pcm_s16le</property>
        <property name="meta.media.0.codec.long_name">PCM signed 16-bit little-endian</property>
        <property name="meta.media.0.codec.bit_rate">768000</property>
        <property name="seekable">1</property>
        <property name="audio_index">0</property>
        <property name="video_index">-1</property>
        <property name="astream">0</property>
        <property name="kdenlive:folderid">-1</property>
        <property name="kdenlive:id">4</property>
        <property name="kdenlive:control_uuid">{292d07dd-35a3-4ab3-8b2b-1765809444b0}</property>
        <property name="kdenlive:clip_type">1</property>
        <property name="kdenlive:file_size">34456364</property>
        <property name="kdenlive:file_hash">54441eea31f469ded8076b75f32afe54</property>
        <property name="kdenlive:kextractor">1</property>
        <property name="kdenlive:meta.extractor.Bitrate">768 kb/s</property>
        <property name="kdenlive:monitorPosition">0</property>
        <property name="kdenlive:clipname">新-纳西妲遇到两道涉及数论的数列题，哥哥姐姐们可以帮帮她吗.wav</property>
    </chain>
    <chain id="chain3" out="00:05:48.133">
        <property name="length">10445</property>
        <property name="eof">pause</property>
        <property name="resource">旧-纳西妲遇到两道涉及数论的数列题，哥哥姐姐们可以帮帮她吗.wav</property>
        <property name="mlt_service">avformat</property>
        <property name="meta.media.nb_streams">1</property>
        <property name="meta.media.0.stream.type">audio</property>
        <property name="meta.media.0.codec.sample_fmt">s16</property>
        <property name="meta.media.0.codec.sample_rate">48000</property>
        <property name="meta.media.0.codec.channels">1</property>
        <property name="meta.media.0.codec.layout">mono</property>
        <property name="meta.media.0.codec.name">pcm_s16le</property>
        <property name="meta.media.0.codec.long_name">PCM signed 16-bit little-endian</property>
        <property name="meta.media.0.codec.bit_rate">768000</property>
        <property name="seekable">1</property>
        <property name="audio_index">0</property>
        <property name="video_index">-1</property>
        <property name="astream">0</property>
        <property name="kdenlive:folderid">-1</property>
        <property name="kdenlive:id">5</property>
        <property name="kdenlive:control_uuid">{1c7f389f-06ee-4afa-848d-3cb048f1b09c}</property>
        <property name="kdenlive:clip_type">1</property>
        <property name="kdenlive:file_size">33423404</property>
        <property name="kdenlive:file_hash">ba351b016a83dc203511465ee8afce30</property>
        <property name="kdenlive:monitorPosition">0</property>
        <property name="kdenlive:kextractor">1</property>
        <property name="kdenlive:meta.extractor.Bitrate">768 kb/s</property>
    </chain>
    <playlist id="main_bin">
        <property name="kdenlive:folder.-1.2">Sequences</property>
        <property name="kdenlive:sequenceFolder">2</property>
        <property name="kdenlive:docproperties.audioChannels">2</property>
        <property name="kdenlive:docproperties.binsort">0</property>
        <property name="kdenlive:docproperties.browserurl">D:/js_practice/slidev-math-videos/media/251114/</property>
        <property name="kdenlive:docproperties.documentid">1765443856090</property>
        <property name="kdenlive:docproperties.enableTimelineZone">0</property>
        <property name="kdenlive:docproperties.enableexternalproxy">0</property>
        <property name="kdenlive:docproperties.enableproxy">1</property>
        <property name="kdenlive:docproperties.externalproxyparams">./;;.LRV;./;;.MP4</property>
        <property name="kdenlive:docproperties.generateimageproxy">0</property>
        <property name="kdenlive:docproperties.generateproxy">0</property>
        <property name="kdenlive:docproperties.guidesCategories">[
            {
            "color": "#9b59b6",
            "comment": "类别 1",
            "index": 0
            },
            {
            "color": "#3daee9",
            "comment": "类别 2",
            "index": 1
            },
            {
            "color": "#1abc9c",
            "comment": "类别 3",
            "index": 2
            },
            {
            "color": "#1cdc9a",
            "comment": "类别 4",
            "index": 3
            },
            {
            "color": "#c9ce3b",
            "comment": "类别 5",
            "index": 4
            },
            {
            "color": "#fdbc4b",
            "comment": "类别 6",
            "index": 5
            },
            {
            "color": "#f39c1f",
            "comment": "类别 7",
            "index": 6
            },
            {
            "color": "#f47750",
            "comment": "类别 8",
            "index": 7
            },
            {
            "color": "#da4453",
            "comment": "类别 9",
            "index": 8
            }
            ]
        </property>
        <property name="kdenlive:docproperties.kdenliveversion">25.08.3</property>
        <property name="kdenlive:docproperties.previewextension" />
        <property name="kdenlive:docproperties.previewparameters" />
        <property name="kdenlive:docproperties.profile">atsc_1080p_30</property>
        <property name="kdenlive:docproperties.proxyextension" />
        <property name="kdenlive:docproperties.proxyimageminsize">2000</property>
        <property name="kdenlive:docproperties.proxyimagesize">800</property>
        <property name="kdenlive:docproperties.proxyminsize">1000</property>
        <property name="kdenlive:docproperties.proxyparams" />
        <property name="kdenlive:docproperties.proxyresize">640</property>
        <property name="kdenlive:docproperties.seekOffset">7500</property>
        <property name="kdenlive:docproperties.sessionid">{751d2987-c4ad-47f7-8815-236a3f8885c6}</property>
        <property name="kdenlive:docproperties.uuid">{17a5f420-0b32-4b43-adca-eec9f3d4bac2}</property>
        <property name="kdenlive:docproperties.version">1.1</property>
        <property name="kdenlive:expandedFolders" />
        <property name="kdenlive:binZoom">4</property>
        <property name="kdenlive:extraBins">project_bin:-1:0</property>
        <property name="kdenlive:documentnotes" />
        <property name="kdenlive:documentnotesversion">2</property>
        <property name="kdenlive:docproperties.opensequences">{17a5f420-0b32-4b43-adca-eec9f3d4bac2}</property>
        <property name="kdenlive:docproperties.activetimeline">{17a5f420-0b32-4b43-adca-eec9f3d4bac2}</property>
        <property name="kdenlive:docproperties.rendercategory">Audio only</property>
        <property name="kdenlive:docproperties.rendercustomquality">-1</property>
        <property name="kdenlive:docproperties.renderendguide">-1</property>
        <property name="kdenlive:docproperties.renderexportaudio">0</property>
        <property name="kdenlive:docproperties.renderfullcolorrange">0</property>
        <property name="kdenlive:docproperties.rendermode">0</property>
        <property name="kdenlive:docproperties.renderplay">0</property>
        <property name="kdenlive:docproperties.renderpreview">0</property>
        <property name="kdenlive:docproperties.renderprofile">WAV</property>
        <property name="kdenlive:docproperties.renderrescale">0</property>
        <property name="kdenlive:docproperties.renderrescaleheight">540</property>
        <property name="kdenlive:docproperties.renderrescalewidth">960</property>
        <property name="kdenlive:docproperties.renderspeed">6</property>
        <property name="kdenlive:docproperties.renderstartguide">-1</property>
        <property name="kdenlive:docproperties.renderstemaudio">0</property>
        <property name="kdenlive:docproperties.rendertcoverlay">0</property>
        <property name="kdenlive:docproperties.rendertctype">-1</property>
        <property name="kdenlive:docproperties.rendertwopass">0</property>
        <property name="kdenlive:docproperties.renderurl">251210-音频.wav</property>
        <property name="xml_retain">1</property>
        <entry in="00:00:00.000" out="00:00:00.000" producer="{17a5f420-0b32-4b43-adca-eec9f3d4bac2}" />
        <entry in="00:00:00.000" out="00:05:58.900" producer="chain2" />
        <entry in="00:00:00.000" out="00:05:48.133" producer="chain3" />
    </playlist>
    <tractor id="tractor4" in="00:00:00.000" out="00:05:38.733">
        <property name="kdenlive:projectTractor">1</property>
        <track in="00:00:00.000" out="00:05:38.733" producer="{17a5f420-0b32-4b43-adca-eec9f3d4bac2}" />
    </tractor>
</mlt>