<?xml version='1.0' encoding='utf-8'?>
<mlt LC_NUMERIC="en_US.UTF-8" producer="main_bin" root="D:/js_practice/slidev-math-videos/media/251219" version="7.33.0">
 <profile colorspace="709" description="HD 1080p 30 fps" display_aspect_den="9" display_aspect_num="16" frame_rate_den="1" frame_rate_num="30" height="1080" progressive="1" sample_aspect_den="1" sample_aspect_num="1" width="1920"/>
 <chain id="chain5" out="00:00:22.900">
  <property name="length">688</property>
  <property name="eof">pause</property>
  <property name="resource">旁白1.mp3</property>
  <property name="mlt_service">avformat</property>
  <property name="meta.media.nb_streams">1</property>
  <property name="meta.media.0.stream.type">audio</property>
  <property name="meta.media.0.codec.sample_fmt">fltp</property>
  <property name="meta.media.0.codec.sample_rate">24000</property>
  <property name="meta.media.0.codec.channels">1</property>
  <property name="meta.media.0.codec.layout">mono</property>
  <property name="meta.media.0.codec.name">mp3float</property>
  <property name="meta.media.0.codec.long_name">MP3 (MPEG audio layer 3)</property>
  <property name="meta.media.0.codec.bit_rate">48000</property>
  <property name="seekable">1</property>
  <property name="audio_index">0</property>
  <property name="video_index">-1</property>
  <property name="astream">0</property>
  <property name="kdenlive:folderid">-1</property>
  <property name="kdenlive:id">4</property>
  <property name="kdenlive:control_uuid">{25762568-400c-4273-9721-a6cba469e91a}</property>
  <property name="kdenlive:clip_type">1</property>
  <property name="kdenlive:file_size">137520</property>
  <property name="kdenlive:file_hash">c6471ff215d7e89792cd64ffb38f3f18</property>
  <property name="kdenlive:kextractor">1</property>
  <property name="kdenlive:meta.extractor.Bitrate">48 kb/s</property>
  <property name="kdenlive:monitorPosition">0</property>
 </chain>
 <chain id="chain6" out="00:00:07.200">
  <property name="length">217</property>
  <property name="eof">pause</property>
  <property name="resource">1-安装edge-tts.mp4</property>
  <property name="mlt_service">avformat-novalidate</property>
  <property name="meta.media.nb_streams">2</property>
  <property name="meta.media.0.stream.type">video</property>
  <property name="meta.media.0.stream.frame_rate">30</property>
  <property name="meta.media.0.stream.sample_aspect_ratio">0</property>
  <property name="meta.media.0.codec.width">1920</property>
  <property name="meta.media.0.codec.height">1080</property>
  <property name="meta.media.0.codec.rotate">0</property>
  <property name="meta.media.0.codec.pix_fmt">yuv420p</property>
  <property name="meta.media.0.codec.sample_aspect_ratio">1</property>
  <property name="meta.media.0.codec.colorspace">709</property>
  <property name="meta.media.0.codec.color_trc">1</property>
  <property name="meta.media.0.codec.name">h264</property>
  <property name="meta.media.0.codec.long_name">H.264 / AVC / MPEG-4 AVC / MPEG-4 part 10</property>
  <property name="meta.media.0.codec.bit_rate">1476367</property>
  <property name="meta.attr.0.stream.handler_name.markup">VideoHandler</property>
  <property name="meta.attr.0.stream.vendor_id.markup">[0][0][0][0]</property>
  <property name="meta.media.1.stream.type">audio</property>
  <property name="meta.media.1.codec.sample_fmt">fltp</property>
  <property name="meta.media.1.codec.sample_rate">48000</property>
  <property name="meta.media.1.codec.channels">2</property>
  <property name="meta.media.1.codec.layout">stereo</property>
  <property name="meta.media.1.codec.name">aac</property>
  <property name="meta.media.1.codec.long_name">AAC (Advanced Audio Coding)</property>
  <property name="meta.media.1.codec.bit_rate">2287</property>
  <property name="meta.attr.1.stream.handler_name.markup">SoundHandler</property>
  <property name="meta.attr.1.stream.vendor_id.markup">[0][0][0][0]</property>
  <property name="meta.attr.major_brand.markup">isom</property>
  <property name="meta.attr.minor_version.markup">512</property>
  <property name="meta.attr.compatible_brands.markup">isomiso2avc1mp41</property>
  <property name="meta.attr.encoder.markup">Lavf61.7.100</property>
  <property name="seekable">1</property>
  <property name="meta.media.sample_aspect_num">1</property>
  <property name="meta.media.sample_aspect_den">1</property>
  <property name="audio_index">1</property>
  <property name="video_index">0</property>
  <property name="vstream">0</property>
  <property name="meta.media.frame_rate_num">30</property>
  <property name="meta.media.frame_rate_den">1</property>
  <property name="meta.media.colorspace">709</property>
  <property name="meta.media.color_trc">1</property>
  <property name="meta.media.has_b_frames">0</property>
  <property name="meta.media.width">1920</property>
  <property name="meta.media.height">1080</property>
  <property name="meta.media.aspect_ratio">1</property>
  <property name="meta.media.color_range">mpeg</property>
  <property name="astream">0</property>
  <property name="meta.media.top_field_first">0</property>
  <property name="meta.media.progressive">1</property>
  <property name="kdenlive:folderid">-1</property>
  <property name="kdenlive:id">5</property>
  <property name="kdenlive:control_uuid">{c087082f-7e09-4659-b99c-76dc0770c457}</property>
  <property name="mute_on_pause">0</property>
  <property name="kdenlive:clip_type">0</property>
  <property name="kdenlive:file_size">1344660</property>
  <property name="kdenlive:file_hash">edcb455ad7d69d270a04ee661912bdbf</property>
  <property name="kdenlive:kextractor">1</property>
  <property name="kdenlive:monitorPosition">0</property>
 </chain>
 <chain id="chain7" out="00:00:06.167">
  <property name="length">186</property>
  <property name="eof">pause</property>
  <property name="resource">2-查看可用的声音模型.mp4</property>
  <property name="mlt_service">avformat-novalidate</property>
  <property name="meta.media.nb_streams">2</property>
  <property name="meta.media.0.stream.type">video</property>
  <property name="meta.media.0.stream.frame_rate">30</property>
  <property name="meta.media.0.stream.sample_aspect_ratio">0</property>
  <property name="meta.media.0.codec.width">1920</property>
  <property name="meta.media.0.codec.height">1080</property>
  <property name="meta.media.0.codec.rotate">0</property>
  <property name="meta.media.0.codec.pix_fmt">yuv420p</property>
  <property name="meta.media.0.codec.sample_aspect_ratio">1</property>
  <property name="meta.media.0.codec.colorspace">709</property>
  <property name="meta.media.0.codec.color_trc">1</property>
  <property name="meta.media.0.codec.name">h264</property>
  <property name="meta.media.0.codec.long_name">H.264 / AVC / MPEG-4 AVC / MPEG-4 part 10</property>
  <property name="meta.media.0.codec.bit_rate">433058</property>
  <property name="meta.attr.0.stream.handler_name.markup">VideoHandler</property>
  <property name="meta.attr.0.stream.vendor_id.markup">[0][0][0][0]</property>
  <property name="meta.media.1.stream.type">audio</property>
  <property name="meta.media.1.codec.sample_fmt">fltp</property>
  <property name="meta.media.1.codec.sample_rate">48000</property>
  <property name="meta.media.1.codec.channels">2</property>
  <property name="meta.media.1.codec.layout">stereo</property>
  <property name="meta.media.1.codec.name">aac</property>
  <property name="meta.media.1.codec.long_name">AAC (Advanced Audio Coding)</property>
  <property name="meta.media.1.codec.bit_rate">2293</property>
  <property name="meta.attr.1.stream.handler_name.markup">SoundHandler</property>
  <property name="meta.attr.1.stream.vendor_id.markup">[0][0][0][0]</property>
  <property name="meta.attr.major_brand.markup">isom</property>
  <property name="meta.attr.minor_version.markup">512</property>
  <property name="meta.attr.compatible_brands.markup">isomiso2avc1mp41</property>
  <property name="meta.attr.encoder.markup">Lavf61.7.100</property>
  <property name="seekable">1</property>
  <property name="meta.media.sample_aspect_num">1</property>
  <property name="meta.media.sample_aspect_den">1</property>
  <property name="audio_index">1</property>
  <property name="video_index">0</property>
  <property name="vstream">0</property>
  <property name="meta.media.frame_rate_num">30</property>
  <property name="meta.media.frame_rate_den">1</property>
  <property name="meta.media.colorspace">709</property>
  <property name="meta.media.color_trc">1</property>
  <property name="meta.media.has_b_frames">0</property>
  <property name="meta.media.width">1920</property>
  <property name="meta.media.height">1080</property>
  <property name="meta.media.aspect_ratio">1</property>
  <property name="meta.media.color_range">mpeg</property>
  <property name="astream">0</property>
  <property name="meta.media.top_field_first">0</property>
  <property name="meta.media.progressive">1</property>
  <property name="kdenlive:folderid">-1</property>
  <property name="kdenlive:id">6</property>
  <property name="kdenlive:control_uuid">{680e17f8-7ede-4c33-88a5-c1fed9095a14}</property>
  <property name="mute_on_pause">0</property>
  <property name="kdenlive:clip_type">0</property>
  <property name="kdenlive:file_size">344184</property>
  <property name="kdenlive:file_hash">25398959cf5589abefcbf86c9668cb62</property>
  <property name="kdenlive:kextractor">1</property>
  <property name="kdenlive:monitorPosition">0</property>
 </chain>
 <producer id="producer1" in="00:00:00.000" out="00:00:09.067">
  <property name="length">00:00:09.100</property>
  <property name="eof">pause</property>
  <property name="resource">D:/js_practice/slidev-math-videos/video-blogs/assets/251219/1-小伙伴的提问.png</property>
  <property name="ttl">25</property>
  <property name="aspect_ratio">1</property>
  <property name="meta.media.progressive">1</property>
  <property name="seekable">1</property>
  <property name="format">1</property>
  <property name="meta.media.width">1656</property>
  <property name="meta.media.height">809</property>
  <property name="mlt_service">qimage</property>
  <property name="kdenlive:duration">00:00:09.100</property>
  <property name="xml">was here</property>
  <property name="kdenlive:folderid">-1</property>
  <property name="kdenlive:id">7</property>
  <property name="kdenlive:control_uuid">{93108a12-7e84-4867-b265-37f46887fad6}</property>
  <property name="kdenlive:clip_type">2</property>
  <property name="kdenlive:file_size">205120</property>
  <property name="kdenlive:monitorPosition">149</property>
  <property name="kdenlive:kextractor">1</property>
  <property name="kdenlive:original_length">00:00:05:00</property>
  <property name="kdenlive:file_hash">248a3b145453713cd1e567d21453e73b</property>
 </producer>
 <chain id="chain8" out="00:01:24.367">
  <property name="length">2532</property>
  <property name="eof">pause</property>
  <property name="resource">旁白2.mp3</property>
  <property name="mlt_service">avformat</property>
  <property name="meta.media.nb_streams">1</property>
  <property name="meta.media.0.stream.type">audio</property>
  <property name="meta.media.0.codec.sample_fmt">fltp</property>
  <property name="meta.media.0.codec.sample_rate">24000</property>
  <property name="meta.media.0.codec.channels">1</property>
  <property name="meta.media.0.codec.layout">mono</property>
  <property name="meta.media.0.codec.name">mp3float</property>
  <property name="meta.media.0.codec.long_name">MP3 (MPEG audio layer 3)</property>
  <property name="meta.media.0.codec.bit_rate">48000</property>
  <property name="seekable">1</property>
  <property name="audio_index">0</property>
  <property name="video_index">-1</property>
  <property name="astream">0</property>
  <property name="kdenlive:folderid">-1</property>
  <property name="kdenlive:id">8</property>
  <property name="kdenlive:control_uuid">{5ed09a20-fb06-481f-ac39-908cdce27b1b}</property>
  <property name="kdenlive:clip_type">1</property>
  <property name="kdenlive:file_size">506304</property>
  <property name="kdenlive:file_hash">af7d1c0adcec0ce89f21bf55e31f270f</property>
  <property name="kdenlive:monitorPosition">0</property>
  <property name="kdenlive:kextractor">1</property>
  <property name="kdenlive:meta.extractor.Bitrate">48 kb/s</property>
 </chain>
 <chain id="chain9" out="00:01:39.600">
  <property name="length">2989</property>
  <property name="eof">pause</property>
  <property name="resource">旁白3.mp3</property>
  <property name="mlt_service">avformat</property>
  <property name="meta.media.nb_streams">1</property>
  <property name="meta.media.0.stream.type">audio</property>
  <property name="meta.media.0.codec.sample_fmt">fltp</property>
  <property name="meta.media.0.codec.sample_rate">24000</property>
  <property name="meta.media.0.codec.channels">1</property>
  <property name="meta.media.0.codec.layout">mono</property>
  <property name="meta.media.0.codec.name">mp3float</property>
  <property name="meta.media.0.codec.long_name">MP3 (MPEG audio layer 3)</property>
  <property name="meta.media.0.codec.bit_rate">48000</property>
  <property name="seekable">1</property>
  <property name="audio_index">0</property>
  <property name="video_index">-1</property>
  <property name="astream">0</property>
  <property name="kdenlive:folderid">-1</property>
  <property name="kdenlive:id">9</property>
  <property name="kdenlive:control_uuid">{608f20f3-e270-4aac-8e25-9debe9e15a8c}</property>
  <property name="kdenlive:clip_type">1</property>
  <property name="kdenlive:file_size">597888</property>
  <property name="kdenlive:file_hash">d6c0d6c6977391201afb287938d0f50e</property>
  <property name="kdenlive:kextractor">1</property>
  <property name="kdenlive:meta.extractor.Bitrate">48 kb/s</property>
 </chain>
 <chain id="chain13" out="00:00:05.933">
  <property name="length">179</property>
  <property name="eof">pause</property>
  <property name="resource">B站-给你讲个故事.mp4</property>
  <property name="mlt_service">avformat-novalidate</property>
  <property name="meta.media.nb_streams">2</property>
  <property name="meta.media.0.stream.type">video</property>
  <property name="meta.media.0.stream.frame_rate">30</property>
  <property name="meta.media.0.stream.sample_aspect_ratio">1</property>
  <property name="meta.media.0.codec.width">1920</property>
  <property name="meta.media.0.codec.height">1080</property>
  <property name="meta.media.0.codec.rotate">0</property>
  <property name="meta.media.0.codec.pix_fmt">yuv420p</property>
  <property name="meta.media.0.codec.sample_aspect_ratio">1</property>
  <property name="meta.media.0.codec.colorspace">709</property>
  <property name="meta.media.0.codec.color_trc">1</property>
  <property name="meta.media.0.codec.name">h264</property>
  <property name="meta.media.0.codec.long_name">H.264 / AVC / MPEG-4 AVC / MPEG-4 part 10</property>
  <property name="meta.media.0.codec.bit_rate">834107</property>
  <property name="meta.attr.0.stream.handler_name.markup">VideoHandler</property>
  <property name="meta.attr.0.stream.vendor_id.markup">[0][0][0][0]</property>
  <property name="meta.media.1.stream.type">audio</property>
  <property name="meta.media.1.codec.sample_fmt">fltp</property>
  <property name="meta.media.1.codec.sample_rate">48000</property>
  <property name="meta.media.1.codec.channels">2</property>
  <property name="meta.media.1.codec.layout">stereo</property>
  <property name="meta.media.1.codec.name">aac</property>
  <property name="meta.media.1.codec.long_name">AAC (Advanced Audio Coding)</property>
  <property name="meta.media.1.codec.bit_rate">159759</property>
  <property name="meta.attr.1.stream.handler_name.markup">SoundHandler</property>
  <property name="meta.attr.1.stream.vendor_id.markup">[0][0][0][0]</property>
  <property name="meta.attr.major_brand.markup">isom</property>
  <property name="meta.attr.minor_version.markup">512</property>
  <property name="meta.attr.compatible_brands.markup">isomiso2avc1mp41</property>
  <property name="meta.attr.encoder.markup">Lavf61.7.100</property>
  <property name="seekable">1</property>
  <property name="meta.media.sample_aspect_num">1</property>
  <property name="meta.media.sample_aspect_den">1</property>
  <property name="audio_index">1</property>
  <property name="video_index">0</property>
  <property name="vstream">0</property>
  <property name="meta.media.frame_rate_num">30</property>
  <property name="meta.media.frame_rate_den">1</property>
  <property name="meta.media.colorspace">709</property>
  <property name="meta.media.color_trc">1</property>
  <property name="meta.media.has_b_frames">2</property>
  <property name="meta.media.width">1920</property>
  <property name="meta.media.height">1080</property>
  <property name="meta.media.aspect_ratio">1</property>
  <property name="meta.media.color_range">mpeg</property>
  <property name="astream">0</property>
  <property name="meta.media.top_field_first">0</property>
  <property name="meta.media.progressive">1</property>
  <property name="kdenlive:folderid">-1</property>
  <property name="kdenlive:id">10</property>
  <property name="kdenlive:control_uuid">{9ee63b4a-9c8f-4d44-ac81-43916adc6a3d}</property>
  <property name="mute_on_pause">0</property>
  <property name="kdenlive:clip_type">0</property>
  <property name="kdenlive:file_size">749847</property>
  <property name="kdenlive:file_hash">63b60cf726dcd3afe970cdb0a855e959</property>
  <property name="kdenlive:kextractor">1</property>
  <property name="kdenlive:monitorPosition">0</property>
 </chain>
 <chain id="chain14" out="00:00:48.933">
  <property name="length">1469</property>
  <property name="eof">pause</property>
  <property name="resource">D:/视频制作素材/摩尔庄园神秘湖原版bgm.mp3</property>
  <property name="mlt_service">avformat</property>
  <property name="meta.media.nb_streams">1</property>
  <property name="meta.media.0.stream.type">audio</property>
  <property name="meta.media.0.codec.sample_fmt">fltp</property>
  <property name="meta.media.0.codec.sample_rate">44100</property>
  <property name="meta.media.0.codec.channels">2</property>
  <property name="meta.media.0.codec.layout">stereo</property>
  <property name="meta.media.0.codec.name">aac</property>
  <property name="meta.media.0.codec.long_name">AAC (Advanced Audio Coding)</property>
  <property name="meta.media.0.codec.bit_rate">75975</property>
  <property name="meta.attr.0.stream.handler_name.markup">SoundHandler</property>
  <property name="meta.attr.0.stream.vendor_id.markup">[0][0][0][0]</property>
  <property name="meta.attr.major_brand.markup">iso5</property>
  <property name="meta.attr.minor_version.markup">1</property>
  <property name="meta.attr.compatible_brands.markup">avc1iso5dsmsmsixdash</property>
  <property name="meta.attr.encoder.markup">Lavf58.29.100</property>
  <property name="meta.attr.description.markup">Packed by Bilibili XCoder v2.0.2</property>
  <property name="seekable">1</property>
  <property name="audio_index">0</property>
  <property name="video_index">-1</property>
  <property name="astream">0</property>
  <property name="kdenlive:folderid">-1</property>
  <property name="kdenlive:id">11</property>
  <property name="kdenlive:control_uuid">{d089feed-e5cd-4a5e-9d4f-7d8037537e24}</property>
  <property name="kdenlive:clip_type">1</property>
  <property name="kdenlive:file_size">583452</property>
  <property name="kdenlive:file_hash">a19172686d483165ccb6996555cde53a</property>
  <property name="kdenlive:kextractor">1</property>
  <property name="kdenlive:monitorPosition">149</property>
 </chain>
 <chain id="chain15" out="00:00:47.500">
  <property name="length">1426</property>
  <property name="eof">pause</property>
  <property name="resource">旁白4.wav</property>
  <property name="mlt_service">avformat</property>
  <property name="meta.media.nb_streams">1</property>
  <property name="meta.media.0.stream.type">audio</property>
  <property name="meta.media.0.codec.sample_fmt">s16</property>
  <property name="meta.media.0.codec.sample_rate">48000</property>
  <property name="meta.media.0.codec.channels">1</property>
  <property name="meta.media.0.codec.layout">mono</property>
  <property name="meta.media.0.codec.name">pcm_s16le</property>
  <property name="meta.media.0.codec.long_name">PCM signed 16-bit little-endian</property>
  <property name="meta.media.0.codec.bit_rate">768000</property>
  <property name="seekable">1</property>
  <property name="audio_index">0</property>
  <property name="video_index">-1</property>
  <property name="astream">0</property>
  <property name="kdenlive:folderid">-1</property>
  <property name="kdenlive:id">12</property>
  <property name="kdenlive:control_uuid">{bb3c3070-5df9-409f-915d-011cea8745b2}</property>
  <property name="kdenlive:clip_type">1</property>
  <property name="kdenlive:file_size">4561964</property>
  <property name="kdenlive:file_hash">6e3020417a4bdfa48d319df2a0257518</property>
  <property name="kdenlive:kextractor">1</property>
  <property name="kdenlive:meta.extractor.Bitrate">768 kb/s</property>
 </chain>
 <chain id="chain18" out="00:00:12.167">
  <property name="length">366</property>
  <property name="eof">pause</property>
  <property name="resource">D:/js_practice/slidev-math-videos/media/251215/3-支持3种模式效果视频展示.mp4</property>
  <property name="mlt_service">avformat-novalidate</property>
  <property name="meta.media.nb_streams">2</property>
  <property name="meta.media.0.stream.type">video</property>
  <property name="meta.media.0.stream.frame_rate">30</property>
  <property name="meta.media.0.stream.sample_aspect_ratio">0</property>
  <property name="meta.media.0.codec.width">1920</property>
  <property name="meta.media.0.codec.height">1080</property>
  <property name="meta.media.0.codec.rotate">0</property>
  <property name="meta.media.0.codec.pix_fmt">yuv420p</property>
  <property name="meta.media.0.codec.sample_aspect_ratio">1</property>
  <property name="meta.media.0.codec.colorspace">709</property>
  <property name="meta.media.0.codec.color_trc">1</property>
  <property name="meta.media.0.codec.name">h264</property>
  <property name="meta.media.0.codec.long_name">H.264 / AVC / MPEG-4 AVC / MPEG-4 part 10</property>
  <property name="meta.media.0.codec.bit_rate">360993</property>
  <property name="meta.attr.0.stream.handler_name.markup">VideoHandler</property>
  <property name="meta.attr.0.stream.vendor_id.markup">[0][0][0][0]</property>
  <property name="meta.media.1.stream.type">audio</property>
  <property name="meta.media.1.codec.sample_fmt">fltp</property>
  <property name="meta.media.1.codec.sample_rate">48000</property>
  <property name="meta.media.1.codec.channels">2</property>
  <property name="meta.media.1.codec.layout">stereo</property>
  <property name="meta.media.1.codec.name">aac</property>
  <property name="meta.media.1.codec.long_name">AAC (Advanced Audio Coding)</property>
  <property name="meta.media.1.codec.bit_rate">2283</property>
  <property name="meta.attr.1.stream.handler_name.markup">SoundHandler</property>
  <property name="meta.attr.1.stream.vendor_id.markup">[0][0][0][0]</property>
  <property name="meta.attr.major_brand.markup">isom</property>
  <property name="meta.attr.minor_version.markup">512</property>
  <property name="meta.attr.compatible_brands.markup">isomiso2avc1mp41</property>
  <property name="meta.attr.encoder.markup">Lavf61.7.100</property>
  <property name="seekable">1</property>
  <property name="meta.media.sample_aspect_num">1</property>
  <property name="meta.media.sample_aspect_den">1</property>
  <property name="audio_index">1</property>
  <property name="video_index">0</property>
  <property name="vstream">0</property>
  <property name="meta.media.frame_rate_num">30</property>
  <property name="meta.media.frame_rate_den">1</property>
  <property name="meta.media.colorspace">709</property>
  <property name="meta.media.color_trc">1</property>
  <property name="meta.media.has_b_frames">0</property>
  <property name="meta.media.width">1920</property>
  <property name="meta.media.height">1080</property>
  <property name="meta.media.aspect_ratio">1</property>
  <property name="meta.media.color_range">mpeg</property>
  <property name="astream">0</property>
  <property name="meta.media.top_field_first">0</property>
  <property name="meta.media.progressive">1</property>
  <property name="kdenlive:folderid">-1</property>
  <property name="kdenlive:id">13</property>
  <property name="kdenlive:control_uuid">{a778e975-18e5-438f-8ae9-5da3b4b82c7d}</property>
  <property name="mute_on_pause">0</property>
  <property name="kdenlive:clip_type">0</property>
  <property name="kdenlive:file_size">565992</property>
  <property name="kdenlive:file_hash">4f5f45f6323975d97521d0f2df9d4f80</property>
  <property name="kdenlive:monitorPosition">0</property>
  <property name="kdenlive:kextractor">1</property>
 </chain>
 <chain id="chain19" out="00:00:05.900">
  <property name="length">178</property>
  <property name="eof">pause</property>
  <property name="resource">D:/js_practice/slidev-math-videos/media/251215/4-接入vitest成功视频展示.mp4</property>
  <property name="mlt_service">avformat-novalidate</property>
  <property name="meta.media.nb_streams">2</property>
  <property name="meta.media.0.stream.type">video</property>
  <property name="meta.media.0.stream.frame_rate">30</property>
  <property name="meta.media.0.stream.sample_aspect_ratio">0</property>
  <property name="meta.media.0.codec.width">1920</property>
  <property name="meta.media.0.codec.height">1080</property>
  <property name="meta.media.0.codec.rotate">0</property>
  <property name="meta.media.0.codec.pix_fmt">yuv420p</property>
  <property name="meta.media.0.codec.sample_aspect_ratio">1</property>
  <property name="meta.media.0.codec.colorspace">709</property>
  <property name="meta.media.0.codec.color_trc">1</property>
  <property name="meta.media.0.codec.name">h264</property>
  <property name="meta.media.0.codec.long_name">H.264 / AVC / MPEG-4 AVC / MPEG-4 part 10</property>
  <property name="meta.media.0.codec.bit_rate">403766</property>
  <property name="meta.attr.0.stream.handler_name.markup">VideoHandler</property>
  <property name="meta.attr.0.stream.vendor_id.markup">[0][0][0][0]</property>
  <property name="meta.media.1.stream.type">audio</property>
  <property name="meta.media.1.codec.sample_fmt">fltp</property>
  <property name="meta.media.1.codec.sample_rate">48000</property>
  <property name="meta.media.1.codec.channels">2</property>
  <property name="meta.media.1.codec.layout">stereo</property>
  <property name="meta.media.1.codec.name">aac</property>
  <property name="meta.media.1.codec.long_name">AAC (Advanced Audio Coding)</property>
  <property name="meta.media.1.codec.bit_rate">2295</property>
  <property name="meta.attr.1.stream.handler_name.markup">SoundHandler</property>
  <property name="meta.attr.1.stream.vendor_id.markup">[0][0][0][0]</property>
  <property name="meta.attr.major_brand.markup">isom</property>
  <property name="meta.attr.minor_version.markup">512</property>
  <property name="meta.attr.compatible_brands.markup">isomiso2avc1mp41</property>
  <property name="meta.attr.encoder.markup">Lavf61.7.100</property>
  <property name="seekable">1</property>
  <property name="meta.media.sample_aspect_num">1</property>
  <property name="meta.media.sample_aspect_den">1</property>
  <property name="audio_index">1</property>
  <property name="video_index">0</property>
  <property name="vstream">0</property>
  <property name="meta.media.frame_rate_num">30</property>
  <property name="meta.media.frame_rate_den">1</property>
  <property name="meta.media.colorspace">709</property>
  <property name="meta.media.color_trc">1</property>
  <property name="meta.media.has_b_frames">0</property>
  <property name="meta.media.width">1920</property>
  <property name="meta.media.height">1080</property>
  <property name="meta.media.aspect_ratio">1</property>
  <property name="meta.media.color_range">mpeg</property>
  <property name="astream">0</property>
  <property name="meta.media.top_field_first">0</property>
  <property name="meta.media.progressive">1</property>
  <property name="kdenlive:folderid">-1</property>
  <property name="kdenlive:id">14</property>
  <property name="kdenlive:control_uuid">{3856c8c4-7c70-4bbf-81cf-6c438d8706d5}</property>
  <property name="mute_on_pause">0</property>
  <property name="kdenlive:clip_type">0</property>
  <property name="kdenlive:file_size">307752</property>
  <property name="kdenlive:file_hash">d53258ac6c78865e7e1fbcf2c3d3899d</property>
  <property name="kdenlive:kextractor">1</property>
 </chain>
 <chain id="chain23" out="00:04:20.900">
  <property name="length">7828</property>
  <property name="eof">pause</property>
  <property name="resource">251219-PPT录屏+表情.mp4</property>
  <property name="mlt_service">avformat-novalidate</property>
  <property name="meta.media.nb_streams">1</property>
  <property name="meta.media.0.stream.type">video</property>
  <property name="meta.media.0.stream.frame_rate">30</property>
  <property name="meta.media.0.stream.sample_aspect_ratio">1</property>
  <property name="meta.media.0.codec.width">1920</property>
  <property name="meta.media.0.codec.height">1080</property>
  <property name="meta.media.0.codec.rotate">0</property>
  <property name="meta.media.0.codec.pix_fmt">yuv420p</property>
  <property name="meta.media.0.codec.sample_aspect_ratio">1</property>
  <property name="meta.media.0.codec.colorspace">709</property>
  <property name="meta.media.0.codec.color_trc">1</property>
  <property name="meta.media.0.codec.name">h264</property>
  <property name="meta.media.0.codec.long_name">H.264 / AVC / MPEG-4 AVC / MPEG-4 part 10</property>
  <property name="meta.media.0.codec.bit_rate">1117535</property>
  <property name="meta.attr.0.stream.handler_name.markup">VideoHandler</property>
  <property name="meta.attr.0.stream.vendor_id.markup">[0][0][0][0]</property>
  <property name="meta.attr.major_brand.markup">isom</property>
  <property name="meta.attr.minor_version.markup">512</property>
  <property name="meta.attr.compatible_brands.markup">isomiso2avc1mp41</property>
  <property name="meta.attr.encoder.markup">Lavf58.76.100</property>
  <property name="seekable">1</property>
  <property name="meta.media.sample_aspect_num">1</property>
  <property name="meta.media.sample_aspect_den">1</property>
  <property name="audio_index">-1</property>
  <property name="video_index">0</property>
  <property name="vstream">0</property>
  <property name="meta.media.frame_rate_num">30</property>
  <property name="meta.media.frame_rate_den">1</property>
  <property name="meta.media.colorspace">709</property>
  <property name="meta.media.color_trc">1</property>
  <property name="meta.media.has_b_frames">2</property>
  <property name="meta.media.width">1920</property>
  <property name="meta.media.height">1080</property>
  <property name="meta.media.aspect_ratio">1</property>
  <property name="meta.media.color_range">mpeg</property>
  <property name="meta.media.top_field_first">0</property>
  <property name="meta.media.progressive">1</property>
  <property name="kdenlive:folderid">-1</property>
  <property name="kdenlive:id">15</property>
  <property name="kdenlive:control_uuid">{8770e279-48d5-4ade-8f60-9ba2eb001556}</property>
  <property name="mute_on_pause">0</property>
  <property name="kdenlive:clip_type">2</property>
  <property name="kdenlive:file_size">36532089</property>
  <property name="kdenlive:file_hash">2da5166c102bd672912b660fc439a40b</property>
  <property name="kdenlive:monitorPosition">0</property>
  <property name="kdenlive:kextractor">1</property>
 </chain>
 <producer id="producer2" in="00:00:00.000" out="00:00:10.933">
  <property name="length">329</property>
  <property name="eof">pause</property>
  <property name="resource">D:/视频制作素材/纳西妲-疑问.png</property>
  <property name="ttl">25</property>
  <property name="aspect_ratio">1</property>
  <property name="meta.media.progressive">1</property>
  <property name="seekable">1</property>
  <property name="format">2</property>
  <property name="meta.media.width">1360</property>
  <property name="meta.media.height">1360</property>
  <property name="mlt_service">qimage</property>
  <property name="kdenlive:duration">00:00:05:00</property>
  <property name="xml">was here</property>
  <property name="kdenlive:folderid">-1</property>
  <property name="kdenlive:id">16</property>
  <property name="kdenlive:control_uuid">{94201fa3-dccf-415f-a863-2520974325d7}</property>
  <property name="kdenlive:clip_type">2</property>
  <property name="kdenlive:file_size">1974305</property>
  <property name="kdenlive:file_hash">6c37b0fdce970c1f411dcae991df3bbb</property>
  <property name="kdenlive:monitorPosition">7816</property>
  <property name="kdenlive:kextractor">1</property>
 </producer>
 <chain id="chain24" out="00:00:12.400">
  <property name="length">373</property>
  <property name="eof">pause</property>
  <property name="resource">D:/视频制作素材/视频背景/【原神】雨中的纳西妲.mp4</property>
  <property name="mlt_service">avformat-novalidate</property>
  <property name="meta.media.nb_streams">1</property>
  <property name="meta.media.0.stream.type">video</property>
  <property name="meta.media.0.stream.frame_rate">60</property>
  <property name="meta.media.0.stream.sample_aspect_ratio">1</property>
  <property name="meta.media.0.codec.width">3840</property>
  <property name="meta.media.0.codec.height">2160</property>
  <property name="meta.media.0.codec.rotate">0</property>
  <property name="meta.media.0.codec.pix_fmt">yuv420p</property>
  <property name="meta.media.0.codec.sample_aspect_ratio">1</property>
  <property name="meta.media.0.codec.colorspace">709</property>
  <property name="meta.media.0.codec.name">h264</property>
  <property name="meta.media.0.codec.long_name">H.264 / AVC / MPEG-4 AVC / MPEG-4 part 10</property>
  <property name="meta.media.0.codec.bit_rate">96454973</property>
  <property name="meta.attr.0.stream.language.markup">eng</property>
  <property name="meta.attr.0.stream.handler_name.markup">Mainconcept Video Media Handler</property>
  <property name="meta.attr.0.stream.vendor_id.markup">[0][0][0][0]</property>
  <property name="meta.attr.major_brand.markup">isom</property>
  <property name="meta.attr.minor_version.markup">512</property>
  <property name="meta.attr.compatible_brands.markup">isomiso2avc1mp41</property>
  <property name="meta.attr.encoder.markup">Lavf58.76.100</property>
  <property name="seekable">1</property>
  <property name="meta.media.sample_aspect_num">1</property>
  <property name="meta.media.sample_aspect_den">1</property>
  <property name="audio_index">-1</property>
  <property name="video_index">0</property>
  <property name="vstream">0</property>
  <property name="meta.media.frame_rate_num">60</property>
  <property name="meta.media.frame_rate_den">1</property>
  <property name="meta.media.colorspace">709</property>
  <property name="meta.media.color_trc">2</property>
  <property name="meta.media.has_b_frames">2</property>
  <property name="meta.media.width">3840</property>
  <property name="meta.media.height">2160</property>
  <property name="meta.media.aspect_ratio">1</property>
  <property name="meta.media.color_range">mpeg</property>
  <property name="meta.media.top_field_first">0</property>
  <property name="meta.media.progressive">1</property>
  <property name="kdenlive:folderid">-1</property>
  <property name="kdenlive:id">17</property>
  <property name="kdenlive:control_uuid">{5bb3f6f7-6bb9-4f0d-9a91-345a04f202c3}</property>
  <property name="mute_on_pause">0</property>
  <property name="kdenlive:clip_type">2</property>
  <property name="kdenlive:file_size">149718060</property>
  <property name="kdenlive:file_hash">c5b5339c568bf5a25d379be551d595bd</property>
  <property name="kdenlive:monitorPosition">0</property>
  <property name="kdenlive:kextractor">1</property>
 </chain>
 <producer id="producer0" in="00:00:00.000" out="00:09:24.733">
  <property name="length">2147483647</property>
  <property name="eof">continue</property>
  <property name="resource">black</property>
  <property name="aspect_ratio">1</property>
  <property name="mlt_service">color</property>
  <property name="kdenlive:playlistid">black_track</property>
  <property name="mlt_image_format">rgba</property>
  <property name="set.test_audio">0</property>
 </producer>
 <chain id="chain0" out="00:00:48.933">
  <property name="length">1469</property>
  <property name="eof">pause</property>
  <property name="resource">D:/视频制作素材/摩尔庄园神秘湖原版bgm.mp3</property>
  <property name="mlt_service">avformat-novalidate</property>
  <property name="seekable">1</property>
  <property name="audio_index">0</property>
  <property name="video_index">-1</property>
  <property name="astream">0</property>
  <property name="kdenlive:folderid">-1</property>
  <property name="kdenlive:id">11</property>
  <property name="kdenlive:control_uuid">{d089feed-e5cd-4a5e-9d4f-7d8037537e24}</property>
  <property name="kdenlive:clip_type">1</property>
  <property name="kdenlive:file_size">583452</property>
  <property name="kdenlive:file_hash">a19172686d483165ccb6996555cde53a</property>
  <property name="kdenlive:kextractor">1</property>
  <property name="kdenlive:monitorPosition">0</property>
  <property name="meta.media.nb_streams">1</property>
  <property name="meta.media.0.stream.type">audio</property>
  <property name="meta.media.0.codec.sample_fmt">fltp</property>
  <property name="meta.media.0.codec.sample_rate">44100</property>
  <property name="meta.media.0.codec.channels">2</property>
  <property name="meta.media.0.codec.layout">stereo</property>
  <property name="meta.media.0.codec.name">aac</property>
  <property name="meta.media.0.codec.long_name">AAC (Advanced Audio Coding)</property>
  <property name="meta.media.0.codec.bit_rate">75975</property>
  <property name="meta.attr.0.stream.handler_name.markup">SoundHandler</property>
  <property name="meta.attr.0.stream.vendor_id.markup">[0][0][0][0]</property>
  <property name="meta.attr.major_brand.markup">iso5</property>
  <property name="meta.attr.minor_version.markup">1</property>
  <property name="meta.attr.compatible_brands.markup">avc1iso5dsmsmsixdash</property>
  <property name="meta.attr.encoder.markup">Lavf58.29.100</property>
  <property name="meta.attr.description.markup">Packed by Bilibili XCoder v2.0.2</property>
  <property name="xml">was here</property>
  <property name="mute_on_pause">0</property>
  <property name="set.test_audio">0</property>
  <property name="set.test_image">1</property>
 </chain>
 <playlist id="playlist0">
  <property name="kdenlive:audio_track">1</property>
  <entry in="00:00:00.000" out="00:00:48.933" producer="chain0">
   <property name="kdenlive:id">11</property>
   <filter id="filter0">
    <property name="window">75</property>
    <property name="max_gain">20dB</property>
    <property name="level">00:00:00.000=-22</property>
    <property name="channel_mask">-1</property>
    <property name="mlt_service">volume</property>
    <property name="kdenlive_id">volume</property>
    <property name="kdenlive:collapsed">0</property>
   </filter>
  </entry>
  <entry in="00:00:00.000" out="00:00:48.933" producer="chain0">
   <property name="kdenlive:id">11</property>
   <filter id="filter1">
    <property name="window">75</property>
    <property name="max_gain">20dB</property>
    <property name="level">00:00:00.000=-22</property>
    <property name="channel_mask">-1</property>
    <property name="mlt_service">volume</property>
    <property name="kdenlive_id">volume</property>
    <property name="kdenlive:collapsed">0</property>
   </filter>
  </entry>
  <entry in="00:00:00.000" out="00:00:48.933" producer="chain0">
   <property name="kdenlive:id">11</property>
   <filter id="filter2">
    <property name="window">75</property>
    <property name="max_gain">20dB</property>
    <property name="level">00:00:00.000=-22</property>
    <property name="channel_mask">-1</property>
    <property name="mlt_service">volume</property>
    <property name="kdenlive_id">volume</property>
    <property name="kdenlive:collapsed">0</property>
   </filter>
  </entry>
  <entry in="00:00:00.000" out="00:00:48.933" producer="chain0">
   <property name="kdenlive:id">11</property>
   <filter id="filter3">
    <property name="window">75</property>
    <property name="max_gain">20dB</property>
    <property name="level">00:00:00.000=-22</property>
    <property name="channel_mask">-1</property>
    <property name="mlt_service">volume</property>
    <property name="kdenlive_id">volume</property>
    <property name="kdenlive:collapsed">0</property>
   </filter>
  </entry>
  <entry in="00:00:00.000" out="00:00:48.933" producer="chain0">
   <property name="kdenlive:id">11</property>
   <filter id="filter4">
    <property name="window">75</property>
    <property name="max_gain">20dB</property>
    <property name="level">00:00:00.000=-22</property>
    <property name="channel_mask">-1</property>
    <property name="mlt_service">volume</property>
    <property name="kdenlive_id">volume</property>
    <property name="kdenlive:collapsed">0</property>
   </filter>
  </entry>
  <entry in="00:00:00.000" out="00:00:19.867" producer="chain0">
   <property name="kdenlive:id">11</property>
   <filter id="filter5">
    <property name="window">75</property>
    <property name="max_gain">20dB</property>
    <property name="level">00:00:00.000=-25</property>
    <property name="channel_mask">-1</property>
    <property name="mlt_service">volume</property>
    <property name="kdenlive_id">volume</property>
   </filter>
  </entry>
 </playlist>
 <playlist id="playlist1">
  <property name="kdenlive:audio_track">1</property>
 </playlist>
 <tractor id="tractor0" in="00:00:00.000" out="00:04:24.700">
  <property name="kdenlive:audio_track">1</property>
  <property name="kdenlive:trackheight">64</property>
  <property name="kdenlive:timeline_active">1</property>
  <property name="kdenlive:collapsed">0</property>
  <property name="kdenlive:thumbs_format"/>
  <property name="kdenlive:audio_rec"/>
  <track hide="video" producer="playlist0"/>
  <track hide="video" producer="playlist1"/>
  <filter id="filter6">
   <property name="window">75</property>
   <property name="max_gain">20dB</property>
   <property name="channel_mask">-1</property>
   <property name="mlt_service">volume</property>
   <property name="internal_added">237</property>
   <property name="disable">1</property>
  </filter>
  <filter id="filter7">
   <property name="channel">-1</property>
   <property name="mlt_service">panner</property>
   <property name="internal_added">237</property>
   <property name="start">0.5</property>
   <property name="disable">1</property>
  </filter>
  <filter id="filter8">
   <property name="iec_scale">0</property>
   <property name="mlt_service">audiolevel</property>
   <property name="dbpeak">1</property>
   <property name="disable">1</property>
  </filter>
 </tractor>
 <chain id="chain1" out="00:00:22.900">
  <property name="length">688</property>
  <property name="eof">pause</property>
  <property name="resource">旁白1.mp3</property>
  <property name="mlt_service">avformat-novalidate</property>
  <property name="seekable">1</property>
  <property name="audio_index">0</property>
  <property name="video_index">-1</property>
  <property name="astream">0</property>
  <property name="kdenlive:folderid">-1</property>
  <property name="kdenlive:id">4</property>
  <property name="kdenlive:control_uuid">{25762568-400c-4273-9721-a6cba469e91a}</property>
  <property name="kdenlive:clip_type">1</property>
  <property name="kdenlive:file_size">137520</property>
  <property name="kdenlive:file_hash">c6471ff215d7e89792cd64ffb38f3f18</property>
  <property name="kdenlive:kextractor">1</property>
  <property name="kdenlive:meta.extractor.Bitrate">48 kb/s</property>
  <property name="kdenlive:monitorPosition">0</property>
  <property name="meta.media.nb_streams">1</property>
  <property name="meta.media.0.stream.type">audio</property>
  <property name="meta.media.0.codec.sample_fmt">fltp</property>
  <property name="meta.media.0.codec.sample_rate">24000</property>
  <property name="meta.media.0.codec.channels">1</property>
  <property name="meta.media.0.codec.layout">mono</property>
  <property name="meta.media.0.codec.name">mp3float</property>
  <property name="meta.media.0.codec.long_name">MP3 (MPEG audio layer 3)</property>
  <property name="meta.media.0.codec.bit_rate">48000</property>
  <property name="xml">was here</property>
  <property name="mute_on_pause">0</property>
  <property name="set.test_audio">0</property>
  <property name="set.test_image">1</property>
 </chain>
 <chain id="chain2" out="00:01:24.367">
  <property name="length">2532</property>
  <property name="eof">pause</property>
  <property name="resource">旁白2.mp3</property>
  <property name="mlt_service">avformat-novalidate</property>
  <property name="seekable">1</property>
  <property name="audio_index">0</property>
  <property name="video_index">-1</property>
  <property name="astream">0</property>
  <property name="kdenlive:folderid">-1</property>
  <property name="kdenlive:id">8</property>
  <property name="kdenlive:control_uuid">{5ed09a20-fb06-481f-ac39-908cdce27b1b}</property>
  <property name="kdenlive:clip_type">1</property>
  <property name="kdenlive:file_size">506304</property>
  <property name="kdenlive:file_hash">af7d1c0adcec0ce89f21bf55e31f270f</property>
  <property name="kdenlive:monitorPosition">0</property>
  <property name="kdenlive:kextractor">1</property>
  <property name="kdenlive:meta.extractor.Bitrate">48 kb/s</property>
  <property name="meta.media.nb_streams">1</property>
  <property name="meta.media.0.stream.type">audio</property>
  <property name="meta.media.0.codec.sample_fmt">fltp</property>
  <property name="meta.media.0.codec.sample_rate">24000</property>
  <property name="meta.media.0.codec.channels">1</property>
  <property name="meta.media.0.codec.layout">mono</property>
  <property name="meta.media.0.codec.name">mp3float</property>
  <property name="meta.media.0.codec.long_name">MP3 (MPEG audio layer 3)</property>
  <property name="meta.media.0.codec.bit_rate">48000</property>
  <property name="xml">was here</property>
  <property name="mute_on_pause">0</property>
  <property name="set.test_audio">0</property>
  <property name="set.test_image">1</property>
 </chain>
 <chain id="chain3" out="00:01:39.600">
  <property name="length">2989</property>
  <property name="eof">pause</property>
  <property name="resource">旁白3.mp3</property>
  <property name="mlt_service">avformat-novalidate</property>
  <property name="seekable">1</property>
  <property name="audio_index">0</property>
  <property name="video_index">-1</property>
  <property name="astream">0</property>
  <property name="kdenlive:folderid">-1</property>
  <property name="kdenlive:id">9</property>
  <property name="kdenlive:control_uuid">{608f20f3-e270-4aac-8e25-9debe9e15a8c}</property>
  <property name="kdenlive:clip_type">1</property>
  <property name="kdenlive:file_size">597888</property>
  <property name="kdenlive:file_hash">d6c0d6c6977391201afb287938d0f50e</property>
  <property name="kdenlive:kextractor">1</property>
  <property name="kdenlive:meta.extractor.Bitrate">48 kb/s</property>
  <property name="meta.media.nb_streams">1</property>
  <property name="meta.media.0.stream.type">audio</property>
  <property name="meta.media.0.codec.sample_fmt">fltp</property>
  <property name="meta.media.0.codec.sample_rate">24000</property>
  <property name="meta.media.0.codec.channels">1</property>
  <property name="meta.media.0.codec.layout">mono</property>
  <property name="meta.media.0.codec.name">mp3float</property>
  <property name="meta.media.0.codec.long_name">MP3 (MPEG audio layer 3)</property>
  <property name="meta.media.0.codec.bit_rate">48000</property>
  <property name="xml">was here</property>
  <property name="mute_on_pause">0</property>
  <property name="set.test_audio">0</property>
  <property name="set.test_image">1</property>
 </chain>
 <chain id="chain4" out="00:00:05.933">
  <property name="length">179</property>
  <property name="eof">pause</property>
  <property name="resource">B站-给你讲个故事.mp4</property>
  <property name="mlt_service">avformat-novalidate</property>
  <property name="seekable">1</property>
  <property name="audio_index">1</property>
  <property name="video_index">0</property>
  <property name="vstream">0</property>
  <property name="astream">0</property>
  <property name="kdenlive:folderid">-1</property>
  <property name="kdenlive:id">10</property>
  <property name="kdenlive:control_uuid">{9ee63b4a-9c8f-4d44-ac81-43916adc6a3d}</property>
  <property name="mute_on_pause">0</property>
  <property name="kdenlive:clip_type">0</property>
  <property name="kdenlive:file_size">749847</property>
  <property name="kdenlive:file_hash">63b60cf726dcd3afe970cdb0a855e959</property>
  <property name="kdenlive:kextractor">1</property>
  <property name="kdenlive:monitorPosition">0</property>
  <property name="meta.media.nb_streams">2</property>
  <property name="meta.media.0.stream.type">video</property>
  <property name="meta.media.0.stream.frame_rate">30</property>
  <property name="meta.media.0.stream.sample_aspect_ratio">1</property>
  <property name="meta.media.0.codec.width">1920</property>
  <property name="meta.media.0.codec.height">1080</property>
  <property name="meta.media.0.codec.rotate">0</property>
  <property name="meta.media.0.codec.pix_fmt">yuv420p</property>
  <property name="meta.media.0.codec.sample_aspect_ratio">1</property>
  <property name="meta.media.0.codec.colorspace">709</property>
  <property name="meta.media.0.codec.color_trc">1</property>
  <property name="meta.media.0.codec.name">h264</property>
  <property name="meta.media.0.codec.long_name">H.264 / AVC / MPEG-4 AVC / MPEG-4 part 10</property>
  <property name="meta.media.0.codec.bit_rate">834107</property>
  <property name="meta.attr.0.stream.handler_name.markup">VideoHandler</property>
  <property name="meta.attr.0.stream.vendor_id.markup">[0][0][0][0]</property>
  <property name="meta.media.1.stream.type">audio</property>
  <property name="meta.media.1.codec.sample_fmt">fltp</property>
  <property name="meta.media.1.codec.sample_rate">48000</property>
  <property name="meta.media.1.codec.channels">2</property>
  <property name="meta.media.1.codec.layout">stereo</property>
  <property name="meta.media.1.codec.name">aac</property>
  <property name="meta.media.1.codec.long_name">AAC (Advanced Audio Coding)</property>
  <property name="meta.media.1.codec.bit_rate">159759</property>
  <property name="meta.attr.1.stream.handler_name.markup">SoundHandler</property>
  <property name="meta.attr.1.stream.vendor_id.markup">[0][0][0][0]</property>
  <property name="meta.attr.major_brand.markup">isom</property>
  <property name="meta.attr.minor_version.markup">512</property>
  <property name="meta.attr.compatible_brands.markup">isomiso2avc1mp41</property>
  <property name="meta.attr.encoder.markup">Lavf61.7.100</property>
  <property name="meta.media.sample_aspect_num">1</property>
  <property name="meta.media.sample_aspect_den">1</property>
  <property name="meta.media.frame_rate_num">30</property>
  <property name="meta.media.frame_rate_den">1</property>
  <property name="meta.media.colorspace">709</property>
  <property name="meta.media.color_trc">1</property>
  <property name="meta.media.has_b_frames">2</property>
  <property name="meta.media.width">1920</property>
  <property name="meta.media.height">1080</property>
  <property name="meta.media.aspect_ratio">1</property>
  <property name="meta.media.color_range">mpeg</property>
  <property name="xml">was here</property>
  <property name="meta.media.top_field_first">0</property>
  <property name="meta.media.progressive">1</property>
  <property name="set.test_audio">0</property>
  <property name="set.test_image">1</property>
 </chain>
 <chain id="chain10" out="00:00:47.500">
  <property name="length">1426</property>
  <property name="eof">pause</property>
  <property name="resource">旁白4.wav</property>
  <property name="mlt_service">avformat-novalidate</property>
  <property name="seekable">1</property>
  <property name="audio_index">0</property>
  <property name="video_index">-1</property>
  <property name="astream">0</property>
  <property name="kdenlive:folderid">-1</property>
  <property name="kdenlive:id">12</property>
  <property name="kdenlive:control_uuid">{bb3c3070-5df9-409f-915d-011cea8745b2}</property>
  <property name="kdenlive:clip_type">1</property>
  <property name="kdenlive:file_size">4561964</property>
  <property name="kdenlive:file_hash">6e3020417a4bdfa48d319df2a0257518</property>
  <property name="kdenlive:kextractor">1</property>
  <property name="kdenlive:meta.extractor.Bitrate">768 kb/s</property>
  <property name="meta.media.nb_streams">1</property>
  <property name="meta.media.0.stream.type">audio</property>
  <property name="meta.media.0.codec.sample_fmt">s16</property>
  <property name="meta.media.0.codec.sample_rate">48000</property>
  <property name="meta.media.0.codec.channels">1</property>
  <property name="meta.media.0.codec.layout">mono</property>
  <property name="meta.media.0.codec.name">pcm_s16le</property>
  <property name="meta.media.0.codec.long_name">PCM signed 16-bit little-endian</property>
  <property name="meta.media.0.codec.bit_rate">768000</property>
  <property name="xml">was here</property>
  <property name="mute_on_pause">0</property>
  <property name="set.test_audio">0</property>
  <property name="set.test_image">1</property>
 </chain>
 <playlist id="playlist2">
  <property name="kdenlive:audio_track">1</property>
  <entry in="00:00:00.000" out="00:00:22.900" producer="chain1">
   <property name="kdenlive:id">4</property>
  </entry>
  <blank length="00:00:04.167"/>
  <entry in="00:00:00.000" out="00:01:24.367" producer="chain2">
   <property name="kdenlive:id">8</property>
  </entry>
  <blank length="00:00:00.100"/>
  <entry in="00:00:00.000" out="00:01:39.600" producer="chain3">
   <property name="kdenlive:id">9</property>
  </entry>
  <entry in="00:00:00.000" out="00:00:05.933" producer="chain4">
   <property name="kdenlive:id">10</property>
  </entry>
  <entry in="00:00:00.000" out="00:00:47.500" producer="chain10">
   <property name="kdenlive:id">12</property>
  </entry>
 </playlist>
 <playlist id="playlist3">
  <property name="kdenlive:audio_track">1</property>
 </playlist>
 <tractor id="tractor1" in="00:00:00.000" out="00:04:24.700">
  <property name="kdenlive:audio_track">1</property>
  <property name="kdenlive:trackheight">64</property>
  <property name="kdenlive:timeline_active">1</property>
  <property name="kdenlive:collapsed">0</property>
  <property name="kdenlive:thumbs_format"/>
  <property name="kdenlive:audio_rec"/>
  <track hide="video" producer="playlist2"/>
  <track hide="video" producer="playlist3"/>
  <filter id="filter9">
   <property name="window">75</property>
   <property name="max_gain">20dB</property>
   <property name="channel_mask">-1</property>
   <property name="mlt_service">volume</property>
   <property name="internal_added">237</property>
   <property name="disable">1</property>
  </filter>
  <filter id="filter10">
   <property name="channel">-1</property>
   <property name="mlt_service">panner</property>
   <property name="internal_added">237</property>
   <property name="start">0.5</property>
   <property name="disable">1</property>
  </filter>
  <filter id="filter11">
   <property name="iec_scale">0</property>
   <property name="mlt_service">audiolevel</property>
   <property name="dbpeak">1</property>
   <property name="disable">1</property>
  </filter>
 </tractor>
 <chain id="chain11" out="00:04:20.900">
  <property name="length">7828</property>
  <property name="eof">pause</property>
  <property name="resource">251219-PPT录屏+表情.mp4</property>
  <property name="mlt_service">avformat-novalidate</property>
  <property name="seekable">1</property>
  <property name="audio_index">-1</property>
  <property name="video_index">0</property>
  <property name="vstream">0</property>
  <property name="kdenlive:folderid">-1</property>
  <property name="kdenlive:id">15</property>
  <property name="kdenlive:control_uuid">{8770e279-48d5-4ade-8f60-9ba2eb001556}</property>
  <property name="mute_on_pause">0</property>
  <property name="kdenlive:clip_type">2</property>
  <property name="kdenlive:file_size">36532089</property>
  <property name="kdenlive:file_hash">2da5166c102bd672912b660fc439a40b</property>
  <property name="kdenlive:monitorPosition">0</property>
  <property name="kdenlive:kextractor">1</property>
  <property name="meta.media.nb_streams">1</property>
  <property name="meta.media.0.stream.type">video</property>
  <property name="meta.media.0.stream.frame_rate">30</property>
  <property name="meta.media.0.stream.sample_aspect_ratio">1</property>
  <property name="meta.media.0.codec.width">1920</property>
  <property name="meta.media.0.codec.height">1080</property>
  <property name="meta.media.0.codec.rotate">0</property>
  <property name="meta.media.0.codec.pix_fmt">yuv420p</property>
  <property name="meta.media.0.codec.sample_aspect_ratio">1</property>
  <property name="meta.media.0.codec.colorspace">709</property>
  <property name="meta.media.0.codec.color_trc">1</property>
  <property name="meta.media.0.codec.name">h264</property>
  <property name="meta.media.0.codec.long_name">H.264 / AVC / MPEG-4 AVC / MPEG-4 part 10</property>
  <property name="meta.media.0.codec.bit_rate">1117535</property>
  <property name="meta.attr.0.stream.handler_name.markup">VideoHandler</property>
  <property name="meta.attr.0.stream.vendor_id.markup">[0][0][0][0]</property>
  <property name="meta.attr.major_brand.markup">isom</property>
  <property name="meta.attr.minor_version.markup">512</property>
  <property name="meta.attr.compatible_brands.markup">isomiso2avc1mp41</property>
  <property name="meta.attr.encoder.markup">Lavf58.76.100</property>
  <property name="meta.media.sample_aspect_num">1</property>
  <property name="meta.media.sample_aspect_den">1</property>
  <property name="meta.media.frame_rate_num">30</property>
  <property name="meta.media.frame_rate_den">1</property>
  <property name="meta.media.colorspace">709</property>
  <property name="meta.media.color_trc">1</property>
  <property name="meta.media.has_b_frames">2</property>
  <property name="meta.media.width">1920</property>
  <property name="meta.media.height">1080</property>
  <property name="meta.media.aspect_ratio">1</property>
  <property name="meta.media.color_range">mpeg</property>
  <property name="xml">was here</property>
  <property name="meta.media.top_field_first">0</property>
  <property name="meta.media.progressive">1</property>
  <property name="set.test_audio">1</property>
  <property name="set.test_image">0</property>
 </chain>
 <chain id="chain12" out="00:00:12.400">
  <property name="length">373</property>
  <property name="eof">pause</property>
  <property name="resource">D:/视频制作素材/视频背景/【原神】雨中的纳西妲.mp4</property>
  <property name="mlt_service">avformat-novalidate</property>
  <property name="seekable">1</property>
  <property name="audio_index">-1</property>
  <property name="video_index">0</property>
  <property name="vstream">0</property>
  <property name="kdenlive:folderid">-1</property>
  <property name="kdenlive:id">17</property>
  <property name="kdenlive:control_uuid">{5bb3f6f7-6bb9-4f0d-9a91-345a04f202c3}</property>
  <property name="mute_on_pause">0</property>
  <property name="kdenlive:clip_type">2</property>
  <property name="kdenlive:file_size">149718060</property>
  <property name="kdenlive:file_hash">c5b5339c568bf5a25d379be551d595bd</property>
  <property name="kdenlive:monitorPosition">0</property>
  <property name="kdenlive:kextractor">1</property>
  <property name="meta.media.nb_streams">1</property>
  <property name="meta.media.0.stream.type">video</property>
  <property name="meta.media.0.stream.frame_rate">60</property>
  <property name="meta.media.0.stream.sample_aspect_ratio">1</property>
  <property name="meta.media.0.codec.width">3840</property>
  <property name="meta.media.0.codec.height">2160</property>
  <property name="meta.media.0.codec.rotate">0</property>
  <property name="meta.media.0.codec.pix_fmt">yuv420p</property>
  <property name="meta.media.0.codec.sample_aspect_ratio">1</property>
  <property name="meta.media.0.codec.colorspace">709</property>
  <property name="meta.media.0.codec.name">h264</property>
  <property name="meta.media.0.codec.long_name">H.264 / AVC / MPEG-4 AVC / MPEG-4 part 10</property>
  <property name="meta.media.0.codec.bit_rate">96454973</property>
  <property name="meta.attr.0.stream.language.markup">eng</property>
  <property name="meta.attr.0.stream.handler_name.markup">Mainconcept Video Media Handler</property>
  <property name="meta.attr.0.stream.vendor_id.markup">[0][0][0][0]</property>
  <property name="meta.attr.major_brand.markup">isom</property>
  <property name="meta.attr.minor_version.markup">512</property>
  <property name="meta.attr.compatible_brands.markup">isomiso2avc1mp41</property>
  <property name="meta.attr.encoder.markup">Lavf58.76.100</property>
  <property name="meta.media.sample_aspect_num">1</property>
  <property name="meta.media.sample_aspect_den">1</property>
  <property name="meta.media.frame_rate_num">60</property>
  <property name="meta.media.frame_rate_den">1</property>
  <property name="meta.media.colorspace">709</property>
  <property name="meta.media.color_trc">2</property>
  <property name="meta.media.has_b_frames">2</property>
  <property name="meta.media.width">3840</property>
  <property name="meta.media.height">2160</property>
  <property name="meta.media.aspect_ratio">1</property>
  <property name="meta.media.color_range">mpeg</property>
  <property name="xml">was here</property>
  <property name="meta.media.top_field_first">0</property>
  <property name="meta.media.progressive">1</property>
  <property name="set.test_audio">1</property>
  <property name="set.test_image">0</property>
 </chain>
 <playlist id="playlist4">
  <entry in="00:00:00.000" out="00:00:17.767" producer="chain11">
   <property name="kdenlive:id">15</property>
  </entry>
  <entry in="00:00:20.700" out="00:01:12.033" producer="chain11">
   <property name="kdenlive:id">15</property>
  </entry>
  <entry in="00:01:12.633" out="00:02:05.733" producer="chain11">
   <property name="kdenlive:id">15</property>
  </entry>
  <entry in="00:02:06.600" out="00:02:57.867" producer="chain11">
   <property name="kdenlive:id">15</property>
  </entry>
  <entry in="00:02:58.533" out="00:03:01.967" producer="chain11">
   <property name="kdenlive:id">15</property>
  </entry>
  <entry in="00:03:02.600" out="00:03:36.733" producer="chain11">
   <property name="kdenlive:id">15</property>
  </entry>
  <blank length="00:00:06.000"/>
  <entry in="00:00:00.000" out="00:00:10.900" producer="chain12">
   <property name="kdenlive:id">17</property>
   <filter id="filter12">
    <property name="version">0.9</property>
    <property name="mlt_service">frei0r.transparency</property>
    <property name="kdenlive_id">frei0r.transparency</property>
    <property name="0">00:00:00.000=0.7</property>
    <property name="kdenlive:collapsed">0</property>
   </filter>
  </entry>
 </playlist>
 <playlist id="playlist5"/>
 <tractor id="tractor2" in="00:00:00.000" out="00:03:48.133">
  <property name="kdenlive:trackheight">64</property>
  <property name="kdenlive:timeline_active">1</property>
  <property name="kdenlive:collapsed">0</property>
  <property name="kdenlive:thumbs_format"/>
  <property name="kdenlive:audio_rec"/>
  <track hide="audio" producer="playlist4"/>
  <track hide="audio" producer="playlist5"/>
 </tractor>
 <chain id="chain16" out="00:00:07.200">
  <property name="length">217</property>
  <property name="eof">pause</property>
  <property name="resource">1-安装edge-tts.mp4</property>
  <property name="mlt_service">avformat-novalidate</property>
  <property name="seekable">1</property>
  <property name="audio_index">1</property>
  <property name="video_index">0</property>
  <property name="vstream">0</property>
  <property name="astream">0</property>
  <property name="kdenlive:folderid">-1</property>
  <property name="kdenlive:id">5</property>
  <property name="kdenlive:control_uuid">{c087082f-7e09-4659-b99c-76dc0770c457}</property>
  <property name="mute_on_pause">0</property>
  <property name="kdenlive:clip_type">0</property>
  <property name="kdenlive:file_size">1344660</property>
  <property name="kdenlive:file_hash">edcb455ad7d69d270a04ee661912bdbf</property>
  <property name="kdenlive:kextractor">1</property>
  <property name="kdenlive:monitorPosition">0</property>
  <property name="meta.media.nb_streams">2</property>
  <property name="meta.media.0.stream.type">video</property>
  <property name="meta.media.0.stream.frame_rate">30</property>
  <property name="meta.media.0.stream.sample_aspect_ratio">0</property>
  <property name="meta.media.0.codec.width">1920</property>
  <property name="meta.media.0.codec.height">1080</property>
  <property name="meta.media.0.codec.rotate">0</property>
  <property name="meta.media.0.codec.pix_fmt">yuv420p</property>
  <property name="meta.media.0.codec.sample_aspect_ratio">1</property>
  <property name="meta.media.0.codec.colorspace">709</property>
  <property name="meta.media.0.codec.color_trc">1</property>
  <property name="meta.media.0.codec.name">h264</property>
  <property name="meta.media.0.codec.long_name">H.264 / AVC / MPEG-4 AVC / MPEG-4 part 10</property>
  <property name="meta.media.0.codec.bit_rate">1476367</property>
  <property name="meta.attr.0.stream.handler_name.markup">VideoHandler</property>
  <property name="meta.attr.0.stream.vendor_id.markup">[0][0][0][0]</property>
  <property name="meta.media.1.stream.type">audio</property>
  <property name="meta.media.1.codec.sample_fmt">fltp</property>
  <property name="meta.media.1.codec.sample_rate">48000</property>
  <property name="meta.media.1.codec.channels">2</property>
  <property name="meta.media.1.codec.layout">stereo</property>
  <property name="meta.media.1.codec.name">aac</property>
  <property name="meta.media.1.codec.long_name">AAC (Advanced Audio Coding)</property>
  <property name="meta.media.1.codec.bit_rate">2287</property>
  <property name="meta.attr.1.stream.handler_name.markup">SoundHandler</property>
  <property name="meta.attr.1.stream.vendor_id.markup">[0][0][0][0]</property>
  <property name="meta.attr.major_brand.markup">isom</property>
  <property name="meta.attr.minor_version.markup">512</property>
  <property name="meta.attr.compatible_brands.markup">isomiso2avc1mp41</property>
  <property name="meta.attr.encoder.markup">Lavf61.7.100</property>
  <property name="meta.media.sample_aspect_num">1</property>
  <property name="meta.media.sample_aspect_den">1</property>
  <property name="meta.media.frame_rate_num">30</property>
  <property name="meta.media.frame_rate_den">1</property>
  <property name="meta.media.colorspace">709</property>
  <property name="meta.media.color_trc">1</property>
  <property name="meta.media.has_b_frames">0</property>
  <property name="meta.media.width">1920</property>
  <property name="meta.media.height">1080</property>
  <property name="meta.media.aspect_ratio">1</property>
  <property name="meta.media.color_range">mpeg</property>
  <property name="xml">was here</property>
  <property name="meta.media.top_field_first">0</property>
  <property name="meta.media.progressive">1</property>
  <property name="set.test_audio">1</property>
  <property name="set.test_image">0</property>
 </chain>
 <chain id="chain17" out="00:00:06.167">
  <property name="length">186</property>
  <property name="eof">pause</property>
  <property name="resource">2-查看可用的声音模型.mp4</property>
  <property name="mlt_service">avformat-novalidate</property>
  <property name="seekable">1</property>
  <property name="audio_index">1</property>
  <property name="video_index">0</property>
  <property name="vstream">0</property>
  <property name="astream">0</property>
  <property name="kdenlive:folderid">-1</property>
  <property name="kdenlive:id">6</property>
  <property name="kdenlive:control_uuid">{680e17f8-7ede-4c33-88a5-c1fed9095a14}</property>
  <property name="mute_on_pause">0</property>
  <property name="kdenlive:clip_type">0</property>
  <property name="kdenlive:file_size">344184</property>
  <property name="kdenlive:file_hash">25398959cf5589abefcbf86c9668cb62</property>
  <property name="kdenlive:kextractor">1</property>
  <property name="kdenlive:monitorPosition">0</property>
  <property name="meta.media.nb_streams">2</property>
  <property name="meta.media.0.stream.type">video</property>
  <property name="meta.media.0.stream.frame_rate">30</property>
  <property name="meta.media.0.stream.sample_aspect_ratio">0</property>
  <property name="meta.media.0.codec.width">1920</property>
  <property name="meta.media.0.codec.height">1080</property>
  <property name="meta.media.0.codec.rotate">0</property>
  <property name="meta.media.0.codec.pix_fmt">yuv420p</property>
  <property name="meta.media.0.codec.sample_aspect_ratio">1</property>
  <property name="meta.media.0.codec.colorspace">709</property>
  <property name="meta.media.0.codec.color_trc">1</property>
  <property name="meta.media.0.codec.name">h264</property>
  <property name="meta.media.0.codec.long_name">H.264 / AVC / MPEG-4 AVC / MPEG-4 part 10</property>
  <property name="meta.media.0.codec.bit_rate">433058</property>
  <property name="meta.attr.0.stream.handler_name.markup">VideoHandler</property>
  <property name="meta.attr.0.stream.vendor_id.markup">[0][0][0][0]</property>
  <property name="meta.media.1.stream.type">audio</property>
  <property name="meta.media.1.codec.sample_fmt">fltp</property>
  <property name="meta.media.1.codec.sample_rate">48000</property>
  <property name="meta.media.1.codec.channels">2</property>
  <property name="meta.media.1.codec.layout">stereo</property>
  <property name="meta.media.1.codec.name">aac</property>
  <property name="meta.media.1.codec.long_name">AAC (Advanced Audio Coding)</property>
  <property name="meta.media.1.codec.bit_rate">2293</property>
  <property name="meta.attr.1.stream.handler_name.markup">SoundHandler</property>
  <property name="meta.attr.1.stream.vendor_id.markup">[0][0][0][0]</property>
  <property name="meta.attr.major_brand.markup">isom</property>
  <property name="meta.attr.minor_version.markup">512</property>
  <property name="meta.attr.compatible_brands.markup">isomiso2avc1mp41</property>
  <property name="meta.attr.encoder.markup">Lavf61.7.100</property>
  <property name="meta.media.sample_aspect_num">1</property>
  <property name="meta.media.sample_aspect_den">1</property>
  <property name="meta.media.frame_rate_num">30</property>
  <property name="meta.media.frame_rate_den">1</property>
  <property name="meta.media.colorspace">709</property>
  <property name="meta.media.color_trc">1</property>
  <property name="meta.media.has_b_frames">0</property>
  <property name="meta.media.width">1920</property>
  <property name="meta.media.height">1080</property>
  <property name="meta.media.aspect_ratio">1</property>
  <property name="meta.media.color_range">mpeg</property>
  <property name="xml">was here</property>
  <property name="meta.media.top_field_first">0</property>
  <property name="meta.media.progressive">1</property>
  <property name="set.test_audio">1</property>
  <property name="set.test_image">0</property>
 </chain>
 <chain id="chain20" out="00:00:05.933">
  <property name="length">179</property>
  <property name="eof">pause</property>
  <property name="resource">B站-给你讲个故事.mp4</property>
  <property name="mlt_service">avformat-novalidate</property>
  <property name="seekable">1</property>
  <property name="audio_index">1</property>
  <property name="video_index">0</property>
  <property name="vstream">0</property>
  <property name="astream">0</property>
  <property name="kdenlive:folderid">-1</property>
  <property name="kdenlive:id">10</property>
  <property name="kdenlive:control_uuid">{9ee63b4a-9c8f-4d44-ac81-43916adc6a3d}</property>
  <property name="mute_on_pause">0</property>
  <property name="kdenlive:clip_type">0</property>
  <property name="kdenlive:file_size">749847</property>
  <property name="kdenlive:file_hash">63b60cf726dcd3afe970cdb0a855e959</property>
  <property name="kdenlive:kextractor">1</property>
  <property name="kdenlive:monitorPosition">0</property>
  <property name="meta.media.nb_streams">2</property>
  <property name="meta.media.0.stream.type">video</property>
  <property name="meta.media.0.stream.frame_rate">30</property>
  <property name="meta.media.0.stream.sample_aspect_ratio">1</property>
  <property name="meta.media.0.codec.width">1920</property>
  <property name="meta.media.0.codec.height">1080</property>
  <property name="meta.media.0.codec.rotate">0</property>
  <property name="meta.media.0.codec.pix_fmt">yuv420p</property>
  <property name="meta.media.0.codec.sample_aspect_ratio">1</property>
  <property name="meta.media.0.codec.colorspace">709</property>
  <property name="meta.media.0.codec.color_trc">1</property>
  <property name="meta.media.0.codec.name">h264</property>
  <property name="meta.media.0.codec.long_name">H.264 / AVC / MPEG-4 AVC / MPEG-4 part 10</property>
  <property name="meta.media.0.codec.bit_rate">834107</property>
  <property name="meta.attr.0.stream.handler_name.markup">VideoHandler</property>
  <property name="meta.attr.0.stream.vendor_id.markup">[0][0][0][0]</property>
  <property name="meta.media.1.stream.type">audio</property>
  <property name="meta.media.1.codec.sample_fmt">fltp</property>
  <property name="meta.media.1.codec.sample_rate">48000</property>
  <property name="meta.media.1.codec.channels">2</property>
  <property name="meta.media.1.codec.layout">stereo</property>
  <property name="meta.media.1.codec.name">aac</property>
  <property name="meta.media.1.codec.long_name">AAC (Advanced Audio Coding)</property>
  <property name="meta.media.1.codec.bit_rate">159759</property>
  <property name="meta.attr.1.stream.handler_name.markup">SoundHandler</property>
  <property name="meta.attr.1.stream.vendor_id.markup">[0][0][0][0]</property>
  <property name="meta.attr.major_brand.markup">isom</property>
  <property name="meta.attr.minor_version.markup">512</property>
  <property name="meta.attr.compatible_brands.markup">isomiso2avc1mp41</property>
  <property name="meta.attr.encoder.markup">Lavf61.7.100</property>
  <property name="meta.media.sample_aspect_num">1</property>
  <property name="meta.media.sample_aspect_den">1</property>
  <property name="meta.media.frame_rate_num">30</property>
  <property name="meta.media.frame_rate_den">1</property>
  <property name="meta.media.colorspace">709</property>
  <property name="meta.media.color_trc">1</property>
  <property name="meta.media.has_b_frames">2</property>
  <property name="meta.media.width">1920</property>
  <property name="meta.media.height">1080</property>
  <property name="meta.media.aspect_ratio">1</property>
  <property name="meta.media.color_range">mpeg</property>
  <property name="xml">was here</property>
  <property name="meta.media.top_field_first">0</property>
  <property name="meta.media.progressive">1</property>
  <property name="set.test_audio">1</property>
  <property name="set.test_image">0</property>
 </chain>
 <chain id="chain21" out="00:00:12.167">
  <property name="length">366</property>
  <property name="eof">pause</property>
  <property name="resource">D:/js_practice/slidev-math-videos/media/251215/3-支持3种模式效果视频展示.mp4</property>
  <property name="mlt_service">avformat-novalidate</property>
  <property name="seekable">1</property>
  <property name="audio_index">1</property>
  <property name="video_index">0</property>
  <property name="vstream">0</property>
  <property name="astream">0</property>
  <property name="kdenlive:folderid">-1</property>
  <property name="kdenlive:id">13</property>
  <property name="kdenlive:control_uuid">{a778e975-18e5-438f-8ae9-5da3b4b82c7d}</property>
  <property name="mute_on_pause">0</property>
  <property name="kdenlive:clip_type">0</property>
  <property name="kdenlive:file_size">565992</property>
  <property name="kdenlive:file_hash">4f5f45f6323975d97521d0f2df9d4f80</property>
  <property name="kdenlive:monitorPosition">0</property>
  <property name="kdenlive:kextractor">1</property>
  <property name="meta.media.nb_streams">2</property>
  <property name="meta.media.0.stream.type">video</property>
  <property name="meta.media.0.stream.frame_rate">30</property>
  <property name="meta.media.0.stream.sample_aspect_ratio">0</property>
  <property name="meta.media.0.codec.width">1920</property>
  <property name="meta.media.0.codec.height">1080</property>
  <property name="meta.media.0.codec.rotate">0</property>
  <property name="meta.media.0.codec.pix_fmt">yuv420p</property>
  <property name="meta.media.0.codec.sample_aspect_ratio">1</property>
  <property name="meta.media.0.codec.colorspace">709</property>
  <property name="meta.media.0.codec.color_trc">1</property>
  <property name="meta.media.0.codec.name">h264</property>
  <property name="meta.media.0.codec.long_name">H.264 / AVC / MPEG-4 AVC / MPEG-4 part 10</property>
  <property name="meta.media.0.codec.bit_rate">360993</property>
  <property name="meta.attr.0.stream.handler_name.markup">VideoHandler</property>
  <property name="meta.attr.0.stream.vendor_id.markup">[0][0][0][0]</property>
  <property name="meta.media.1.stream.type">audio</property>
  <property name="meta.media.1.codec.sample_fmt">fltp</property>
  <property name="meta.media.1.codec.sample_rate">48000</property>
  <property name="meta.media.1.codec.channels">2</property>
  <property name="meta.media.1.codec.layout">stereo</property>
  <property name="meta.media.1.codec.name">aac</property>
  <property name="meta.media.1.codec.long_name">AAC (Advanced Audio Coding)</property>
  <property name="meta.media.1.codec.bit_rate">2283</property>
  <property name="meta.attr.1.stream.handler_name.markup">SoundHandler</property>
  <property name="meta.attr.1.stream.vendor_id.markup">[0][0][0][0]</property>
  <property name="meta.attr.major_brand.markup">isom</property>
  <property name="meta.attr.minor_version.markup">512</property>
  <property name="meta.attr.compatible_brands.markup">isomiso2avc1mp41</property>
  <property name="meta.attr.encoder.markup">Lavf61.7.100</property>
  <property name="meta.media.sample_aspect_num">1</property>
  <property name="meta.media.sample_aspect_den">1</property>
  <property name="meta.media.frame_rate_num">30</property>
  <property name="meta.media.frame_rate_den">1</property>
  <property name="meta.media.colorspace">709</property>
  <property name="meta.media.color_trc">1</property>
  <property name="meta.media.has_b_frames">0</property>
  <property name="meta.media.width">1920</property>
  <property name="meta.media.height">1080</property>
  <property name="meta.media.aspect_ratio">1</property>
  <property name="meta.media.color_range">mpeg</property>
  <property name="xml">was here</property>
  <property name="meta.media.top_field_first">0</property>
  <property name="meta.media.progressive">1</property>
  <property name="set.test_audio">1</property>
  <property name="set.test_image">0</property>
 </chain>
 <chain id="chain22" out="00:00:05.900">
  <property name="length">178</property>
  <property name="eof">pause</property>
  <property name="resource">D:/js_practice/slidev-math-videos/media/251215/4-接入vitest成功视频展示.mp4</property>
  <property name="mlt_service">avformat-novalidate</property>
  <property name="seekable">1</property>
  <property name="audio_index">1</property>
  <property name="video_index">0</property>
  <property name="vstream">0</property>
  <property name="astream">0</property>
  <property name="kdenlive:folderid">-1</property>
  <property name="kdenlive:id">14</property>
  <property name="kdenlive:control_uuid">{3856c8c4-7c70-4bbf-81cf-6c438d8706d5}</property>
  <property name="mute_on_pause">0</property>
  <property name="kdenlive:clip_type">0</property>
  <property name="kdenlive:file_size">307752</property>
  <property name="kdenlive:file_hash">d53258ac6c78865e7e1fbcf2c3d3899d</property>
  <property name="kdenlive:kextractor">1</property>
  <property name="meta.media.nb_streams">2</property>
  <property name="meta.media.0.stream.type">video</property>
  <property name="meta.media.0.stream.frame_rate">30</property>
  <property name="meta.media.0.stream.sample_aspect_ratio">0</property>
  <property name="meta.media.0.codec.width">1920</property>
  <property name="meta.media.0.codec.height">1080</property>
  <property name="meta.media.0.codec.rotate">0</property>
  <property name="meta.media.0.codec.pix_fmt">yuv420p</property>
  <property name="meta.media.0.codec.sample_aspect_ratio">1</property>
  <property name="meta.media.0.codec.colorspace">709</property>
  <property name="meta.media.0.codec.color_trc">1</property>
  <property name="meta.media.0.codec.name">h264</property>
  <property name="meta.media.0.codec.long_name">H.264 / AVC / MPEG-4 AVC / MPEG-4 part 10</property>
  <property name="meta.media.0.codec.bit_rate">403766</property>
  <property name="meta.attr.0.stream.handler_name.markup">VideoHandler</property>
  <property name="meta.attr.0.stream.vendor_id.markup">[0][0][0][0]</property>
  <property name="meta.media.1.stream.type">audio</property>
  <property name="meta.media.1.codec.sample_fmt">fltp</property>
  <property name="meta.media.1.codec.sample_rate">48000</property>
  <property name="meta.media.1.codec.channels">2</property>
  <property name="meta.media.1.codec.layout">stereo</property>
  <property name="meta.media.1.codec.name">aac</property>
  <property name="meta.media.1.codec.long_name">AAC (Advanced Audio Coding)</property>
  <property name="meta.media.1.codec.bit_rate">2295</property>
  <property name="meta.attr.1.stream.handler_name.markup">SoundHandler</property>
  <property name="meta.attr.1.stream.vendor_id.markup">[0][0][0][0]</property>
  <property name="meta.attr.major_brand.markup">isom</property>
  <property name="meta.attr.minor_version.markup">512</property>
  <property name="meta.attr.compatible_brands.markup">isomiso2avc1mp41</property>
  <property name="meta.attr.encoder.markup">Lavf61.7.100</property>
  <property name="meta.media.sample_aspect_num">1</property>
  <property name="meta.media.sample_aspect_den">1</property>
  <property name="meta.media.frame_rate_num">30</property>
  <property name="meta.media.frame_rate_den">1</property>
  <property name="meta.media.colorspace">709</property>
  <property name="meta.media.color_trc">1</property>
  <property name="meta.media.has_b_frames">0</property>
  <property name="meta.media.width">1920</property>
  <property name="meta.media.height">1080</property>
  <property name="meta.media.aspect_ratio">1</property>
  <property name="meta.media.color_range">mpeg</property>
  <property name="xml">was here</property>
  <property name="meta.media.top_field_first">0</property>
  <property name="meta.media.progressive">1</property>
  <property name="set.test_audio">1</property>
  <property name="set.test_image">0</property>
 </chain>
 <playlist id="playlist6">
  <blank length="00:00:00.633"/>
  <entry in="00:00:00.000" out="00:00:09.067" producer="producer1">
   <property name="kdenlive:id">7</property>
   <filter id="filter13">
    <property name="rotate_center">1</property>
    <property name="mlt_service">qtblend</property>
    <property name="kdenlive_id">qtblend</property>
    <property name="compositing">0</property>
    <property name="distort">0</property>
    <property name="rect">00:00:00.000=360 240 1200 600 1.000000</property>
    <property name="rotation">00:00:00.000=0</property>
    <property name="kdenlive:collapsed">0</property>
    <property name="">352 250 1200 600 1.000000</property>
   </filter>
  </entry>
  <blank length="00:00:13.200"/>
  <entry in="00:00:00.000" out="00:00:07.200" producer="chain16">
   <property name="kdenlive:id">5</property>
  </entry>
  <blank length="00:01:21.333"/>
  <entry in="00:00:00.000" out="00:00:06.167" producer="chain17">
   <property name="kdenlive:id">6</property>
  </entry>
  <blank length="00:01:33.533"/>
  <entry in="00:00:00.000" out="00:00:05.933" producer="chain20">
   <property name="kdenlive:id">10</property>
  </entry>
  <blank length="00:00:00.033"/>
  <entry in="00:00:00.000" out="00:00:10.900" producer="producer2">
   <property name="kdenlive:id">16</property>
   <filter id="filter14">
    <property name="rotate_center">1</property>
    <property name="mlt_service">qtblend</property>
    <property name="kdenlive_id">qtblend</property>
    <property name="compositing">0</property>
    <property name="distort">0</property>
    <property name="rect">00:00:00.000=660 240 600 600 1.000000</property>
    <property name="rotation">00:00:00.000=0</property>
    <property name="kdenlive:collapsed">0</property>
   </filter>
  </entry>
  <entry in="00:00:00.000" out="00:00:12.167" producer="chain21">
   <property name="kdenlive:id">13</property>
  </entry>
  <entry in="00:00:00.000" out="00:00:05.900" producer="chain22">
   <property name="kdenlive:id">14</property>
  </entry>
  <entry in="00:00:00.000" out="00:00:12.167" producer="chain21">
   <property name="kdenlive:id">13</property>
  </entry>
  <entry in="00:00:00.000" out="00:00:05.900" producer="chain22">
   <property name="kdenlive:id">14</property>
  </entry>
  <entry in="00:00:00.000" out="00:00:00.267" producer="chain22">
   <property name="kdenlive:id">14</property>
  </entry>
 </playlist>
 <playlist id="playlist7"/>
 <tractor id="tractor3" in="00:00:00.000" out="00:04:24.700">
  <property name="kdenlive:trackheight">64</property>
  <property name="kdenlive:timeline_active">1</property>
  <property name="kdenlive:collapsed">0</property>
  <property name="kdenlive:thumbs_format"/>
  <property name="kdenlive:audio_rec"/>
  <track hide="audio" producer="playlist6"/>
  <track hide="audio" producer="playlist7"/>
 </tractor>
 <tractor id="tractor4" in="00:00:00.000" out="00:04:24.700">
  <property name="kdenlive:duration">00:04:24.733</property>
  <property name="kdenlive:maxduration">7942</property>
  <property name="kdenlive:clipname">Sequence 1</property>
  <property name="kdenlive:description"/>
  <property name="kdenlive:uuid">{ebcb4b73-31e3-4716-9fbb-9b7856a08e54}</property>
  <property name="kdenlive:producer_type">17</property>
  <property name="kdenlive:control_uuid">{ebcb4b73-31e3-4716-9fbb-9b7856a08e54}</property>
  <property name="kdenlive:id">3</property>
  <property name="kdenlive:clip_type">0</property>
  <property name="kdenlive:file_hash">3850a19e437fe7bb458f425aec127d7b</property>
  <property name="kdenlive:folderid">2</property>
  <property name="kdenlive:sequenceproperties.activeTrack">3</property>
  <property name="kdenlive:sequenceproperties.audioTarget">1</property>
  <property name="kdenlive:sequenceproperties.disablepreview">0</property>
  <property name="kdenlive:sequenceproperties.documentuuid">{ebcb4b73-31e3-4716-9fbb-9b7856a08e54}</property>
  <property name="kdenlive:sequenceproperties.globalSubtitleStyles">[
]
</property>
  <property name="kdenlive:sequenceproperties.hasAudio">1</property>
  <property name="kdenlive:sequenceproperties.hasVideo">1</property>
  <property name="kdenlive:sequenceproperties.hidesubtitle">0</property>
  <property name="kdenlive:sequenceproperties.position">458</property>
  <property name="kdenlive:sequenceproperties.scrollPos">0</property>
  <property name="kdenlive:sequenceproperties.subtitlesList">[
    {
        "file": "C:/Users/admin/AppData/Local/Temp/1766128834904-{98a5a95e-fc93-40c7-9815-5d0610f98586}.ass",
        "id": 0,
        "name": "Subtitles"
    }
]
</property>
  <property name="kdenlive:sequenceproperties.tracks">4</property>
  <property name="kdenlive:sequenceproperties.tracksCount">4</property>
  <property name="kdenlive:sequenceproperties.verticalzoom">1</property>
  <property name="kdenlive:sequenceproperties.videoTarget">2</property>
  <property name="kdenlive:sequenceproperties.zonein">0</property>
  <property name="kdenlive:sequenceproperties.zoneout">75</property>
  <property name="kdenlive:sequenceproperties.zoom">7</property>
  <property name="kdenlive:sequenceproperties.groups">[
]
</property>
  <property name="kdenlive:sequenceproperties.guides">[
]
</property>
  <track producer="producer0"/>
  <track producer="tractor0"/>
  <track producer="tractor1"/>
  <track producer="tractor2"/>
  <track producer="tractor3"/>
  <transition id="transition0">
   <property name="a_track">0</property>
   <property name="b_track">1</property>
   <property name="mlt_service">mix</property>
   <property name="kdenlive_id">mix</property>
   <property name="internal_added">237</property>
   <property name="always_active">1</property>
   <property name="accepts_blanks">1</property>
   <property name="sum">1</property>
  </transition>
  <transition id="transition1">
   <property name="a_track">0</property>
   <property name="b_track">2</property>
   <property name="mlt_service">mix</property>
   <property name="kdenlive_id">mix</property>
   <property name="internal_added">237</property>
   <property name="always_active">1</property>
   <property name="accepts_blanks">1</property>
   <property name="sum">1</property>
  </transition>
  <transition id="transition2">
   <property name="a_track">0</property>
   <property name="b_track">3</property>
   <property name="compositing">0</property>
   <property name="distort">0</property>
   <property name="rotate_center">0</property>
   <property name="mlt_service">qtblend</property>
   <property name="kdenlive_id">qtblend</property>
   <property name="internal_added">237</property>
   <property name="always_active">1</property>
  </transition>
  <transition id="transition3">
   <property name="a_track">0</property>
   <property name="b_track">4</property>
   <property name="compositing">0</property>
   <property name="distort">0</property>
   <property name="rotate_center">0</property>
   <property name="mlt_service">qtblend</property>
   <property name="kdenlive_id">qtblend</property>
   <property name="internal_added">237</property>
   <property name="always_active">1</property>
  </transition>
  <filter id="filter15">
   <property name="window">75</property>
   <property name="max_gain">20dB</property>
   <property name="channel_mask">-1</property>
   <property name="mlt_service">volume</property>
   <property name="internal_added">237</property>
   <property name="disable">1</property>
  </filter>
  <filter id="filter16">
   <property name="channel">-1</property>
   <property name="mlt_service">panner</property>
   <property name="internal_added">237</property>
   <property name="start">0.5</property>
   <property name="disable">1</property>
  </filter>
  <filter id="filter17">
   <property name="mlt_service">avfilter.subtitles</property>
   <property name="av.alpha">1</property>
   <property name="internal_added">237</property>
   <property name="av.filename">251219.kdenlive.ass</property>
  </filter>
 </tractor>
 <playlist id="main_bin">
  <property name="kdenlive:folder.-1.2">Sequences</property>
  <property name="kdenlive:sequenceFolder">2</property>
  <property name="kdenlive:docproperties.activetimeline">{ebcb4b73-31e3-4716-9fbb-9b7856a08e54}</property>
  <property name="kdenlive:docproperties.audioChannels">2</property>
  <property name="kdenlive:docproperties.binsort">0</property>
  <property name="kdenlive:docproperties.browserurl">D:/js_practice/slidev-math-videos/media/251114/</property>
  <property name="kdenlive:docproperties.documentid">1766128834904</property>
  <property name="kdenlive:docproperties.enableTimelineZone">0</property>
  <property name="kdenlive:docproperties.enableexternalproxy">0</property>
  <property name="kdenlive:docproperties.enableproxy">1</property>
  <property name="kdenlive:docproperties.externalproxyparams">./;;.LRV;./;;.MP4</property>
  <property name="kdenlive:docproperties.generateimageproxy">0</property>
  <property name="kdenlive:docproperties.generateproxy">0</property>
  <property name="kdenlive:docproperties.guidesCategories">[
    {
        "color": "#9b59b6",
        "comment": "类别 1",
        "index": 0
    },
    {
        "color": "#3daee9",
        "comment": "类别 2",
        "index": 1
    },
    {
        "color": "#1abc9c",
        "comment": "类别 3",
        "index": 2
    },
    {
        "color": "#1cdc9a",
        "comment": "类别 4",
        "index": 3
    },
    {
        "color": "#c9ce3b",
        "comment": "类别 5",
        "index": 4
    },
    {
        "color": "#fdbc4b",
        "comment": "类别 6",
        "index": 5
    },
    {
        "color": "#f39c1f",
        "comment": "类别 7",
        "index": 6
    },
    {
        "color": "#f47750",
        "comment": "类别 8",
        "index": 7
    },
    {
        "color": "#da4453",
        "comment": "类别 9",
        "index": 8
    }
]
</property>
  <property name="kdenlive:docproperties.kdenliveversion">25.08.3</property>
  <property name="kdenlive:docproperties.opensequences">{ebcb4b73-31e3-4716-9fbb-9b7856a08e54}</property>
  <property name="kdenlive:docproperties.previewextension"/>
  <property name="kdenlive:docproperties.previewparameters"/>
  <property name="kdenlive:docproperties.profile">atsc_1080p_30</property>
  <property name="kdenlive:docproperties.proxyextension"/>
  <property name="kdenlive:docproperties.proxyimageminsize">2000</property>
  <property name="kdenlive:docproperties.proxyimagesize">800</property>
  <property name="kdenlive:docproperties.proxyminsize">1000</property>
  <property name="kdenlive:docproperties.proxyparams"/>
  <property name="kdenlive:docproperties.proxyresize">640</property>
  <property name="kdenlive:docproperties.rendercategory">Generic (HD for web, mobile devices...)</property>
  <property name="kdenlive:docproperties.rendercustomquality">-1</property>
  <property name="kdenlive:docproperties.renderendguide">-1</property>
  <property name="kdenlive:docproperties.renderexportaudio">0</property>
  <property name="kdenlive:docproperties.renderfullcolorrange">0</property>
  <property name="kdenlive:docproperties.rendermode">0</property>
  <property name="kdenlive:docproperties.renderplay">0</property>
  <property name="kdenlive:docproperties.renderpreview">0</property>
  <property name="kdenlive:docproperties.renderprofile">MP4-H264/AAC</property>
  <property name="kdenlive:docproperties.renderrescale">0</property>
  <property name="kdenlive:docproperties.renderrescaleheight">540</property>
  <property name="kdenlive:docproperties.renderrescalewidth">960</property>
  <property name="kdenlive:docproperties.renderspeed">6</property>
  <property name="kdenlive:docproperties.renderstartguide">-1</property>
  <property name="kdenlive:docproperties.renderstemaudio">0</property>
  <property name="kdenlive:docproperties.rendertcoverlay">0</property>
  <property name="kdenlive:docproperties.rendertctype">-1</property>
  <property name="kdenlive:docproperties.rendertwopass">0</property>
  <property name="kdenlive:docproperties.renderurl">【技术分享】如何用听感更顺耳的edge-tts为manim动画添加旁白.mp4</property>
  <property name="kdenlive:docproperties.seekOffset">7500</property>
  <property name="kdenlive:docproperties.sessionid">{705d44f3-f89a-4d30-bc6e-80eff4f80f7f}</property>
  <property name="kdenlive:docproperties.uuid">{ebcb4b73-31e3-4716-9fbb-9b7856a08e54}</property>
  <property name="kdenlive:docproperties.version">1.1</property>
  <property name="kdenlive:expandedFolders"/>
  <property name="kdenlive:binZoom">4</property>
  <property name="kdenlive:extraBins">project_bin:-1:0</property>
  <property name="kdenlive:documentnotes"/>
  <property name="kdenlive:documentnotesversion">2</property>
  <property name="xml_retain">1</property>
  <entry in="00:00:00.000" out="00:00:22.900" producer="chain5"/>
  <entry in="00:00:00.000" out="00:00:07.200" producer="chain6"/>
  <entry in="00:00:00.000" out="00:00:06.167" producer="chain7"/>
  <entry in="00:00:00.000" out="00:00:09.067" producer="producer1"/>
  <entry in="00:00:00.000" out="00:01:24.367" producer="chain8"/>
  <entry in="00:00:00.000" out="00:01:39.600" producer="chain9"/>
  <entry in="00:00:00.000" out="00:00:05.933" producer="chain13"/>
  <entry in="00:00:00.000" out="00:00:48.933" producer="chain14"/>
  <entry in="00:00:00.000" out="00:00:47.500" producer="chain15"/>
  <entry in="00:00:00.000" out="00:00:12.167" producer="chain18"/>
  <entry in="00:00:00.000" out="00:00:05.900" producer="chain19"/>
  <entry in="00:00:00.000" out="00:04:20.900" producer="chain23"/>
  <entry in="00:00:00.000" out="00:00:10.933" producer="producer2"/>
  <entry in="00:00:00.000" out="00:00:12.400" producer="chain24"/>
  <entry in="00:00:00.000" out="00:04:24.700" producer="tractor4"/>
 </playlist>
 <tractor id="tractor5" in="00:00:00.000" out="00:04:24.700">
  <property name="kdenlive:projectTractor">1</property>
  <track in="00:00:00.000" out="00:04:24.700" producer="tractor4"/>
 </tractor>
</mlt>
